<?xml version="1.0" encoding="utf-8"?>
<!-- Generator: Adobe Illustrator 19.2.0, SVG Export Plug-In . SVG Version: 6.00 Build 0)  -->
<svg version="1.1" xmlns="http://www.w3.org/2000/svg" xmlns:xlink="http://www.w3.org/1999/xlink" x="0px" y="0px"
	 viewBox="0 0 512 512" style="enable-background:new 0 0 512 512;" xml:space="preserve">
<style type="text/css">
	.st0{display:none;fill:#1D1D1B;}
	.st1{fill:#1D1D1B;}
</style>
<g id="Layer_1">
	<path id="_x31_" class="st0" d="M399,159c-5.3,0-10.6,0.4-15.8,1.1C353.3,119.4,306.2,95,255,95s-98.3,24.4-128.2,65.1
		c-5.2-0.8-10.5-1.1-15.8-1.1C49.3,159-1,209.3-1,271s50.3,112,112,112c13.7,0,27.1-2.5,39.7-7.3c29,25.3,65.8,39.3,104.3,39.3
		c38.5,0,75.3-14.1,104.3-39.3c12.6,4.8,26,7.3,39.7,7.3c61.8,0,112-50.3,112-112S460.8,159,399,159z M399,351
		c-17.1,0-32.9-5.5-45.9-14.7C329.6,364.6,294.6,383,255,383c-39.6,0-74.6-18.4-98.1-46.7c-13,9.2-28.8,14.7-45.9,14.7
		c-44.2,0-80-35.8-80-80s35.8-80,80-80c10.8,0,21.1,2.2,30.4,6.1C162.7,155.7,205.3,127,255,127s92.3,28.7,113.5,70.1
		c9.4-3.9,19.7-6.1,30.5-6.1c44.2,0,80,35.8,80,80S443.2,351,399,351z"/>
	<path id="_x32_" class="st0" d="M511,240c0-49.2-40-89.1-89.2-89.1c-2.4,0-4.8,0.1-7.1,0.3c-23.1-28.9-58-46-95.7-46
		c-37.7,0-72.6,17.1-95.7,46c-2.4-0.2-4.8-0.3-7.2-0.3c-49.1,0-89.1,40-89.1,89.1c0,5.1,0.7,10.1,1.5,15c-0.5,0.7-1.2,1.4-1.7,2.1
		c-5.2-0.8-10.5-1.1-15.8-1.1C49.3,256-1,306.3-1,368c0,61.8,50.3,112,112,112c13.7,0,27.1-2.5,39.7-7.3
		c29,25.3,65.8,39.3,104.3,39.3c38.5,0,75.3-14.1,104.3-39.3c12.6,4.8,26,7.3,39.7,7.3c61.8,0,112-50.2,112-112
		c0-25.7-9-49.1-23.7-68C501.9,284.1,511,263.2,511,240z M399,448c-17.1,0-32.9-5.5-45.9-14.7C329.6,461.6,294.6,480,255,480
		c-39.6,0-74.6-18.4-98.1-46.7c-13,9.2-28.8,14.7-45.9,14.7c-44.2,0-80-35.8-80-80s35.8-80,80-80c10.8,0,21.1,2.2,30.4,6.1
		c0.6-1.1,1.3-2,1.8-3c5.6-10.3,12.6-19.7,20.7-28c23.1-23.9,55.2-39,91.1-39c49.7,0,92.3,28.7,113.5,70.1
		c5.6-2.3,11.7-3.8,17.9-4.8L399,288c12.3,0,23.9,3,34.3,8c11.3,5.4,21,13.4,28.6,23.2c10.5,13.5,17,30.4,17,48.8
		C479,412.2,443.2,448,399,448z M464.6,277.6c-18.5-13.5-41-21.6-65.6-21.6c-5.3,0-10.6,0.4-15.8,1.1c-29.9-40.7-77-65.1-128.2-65.1
		c-34.1,0-66.3,11-92.9,30.3c7.5-22.9,28.7-39.5,54.1-39.5c7.8,0,15.1,1.6,21.8,4.3c15.2-29.6,45.6-50,81.1-50s66,20.5,81.1,50
		c6.7-2.8,14.1-4.3,21.7-4.3c31.6,0,57.2,25.6,57.2,57.1C479,254.5,473.4,267.5,464.6,277.6z"/>
	<g id="_x33_">
		<path class="st1" d="M511.6,358.6c0.1,1.5,0.2,2.9,0.3,4.4c-1-23.8-9.5-45.7-23.2-63.4c-0.1,0.1-0.2,0.2-0.3,0.4
			c0.9,1.1,1.7,2.3,2.6,3.5c-0.8-1.2-1.7-2.3-2.6-3.5c0.1-0.1,0.2-0.2,0.3-0.4l0,0c0,0,0,0,0,0c4.5-5,8.5-10.4,11.8-16.2
			c0,0,0,0,0,0c0.7-1.2,1.3-2.3,1.9-3.5c0,0,0-0.1,0.1-0.1c0.6-1.2,1.2-2.3,1.7-3.5c0-0.1,0.1-0.2,0.1-0.3c0.5-1.1,1-2.3,1.5-3.4
			c0.1-0.1,0.1-0.3,0.2-0.4c0.4-1.1,0.9-2.2,1.3-3.4c0.1-0.2,0.1-0.4,0.2-0.7c0.4-1.1,0.7-2.1,1-3.2c0.1-0.3,0.2-0.6,0.2-0.9
			c0.3-1,0.6-2,0.8-3.1c0.1-0.4,0.2-0.8,0.3-1.2c0.2-0.9,0.4-1.9,0.6-2.9c0.1-0.5,0.2-1,0.3-1.5c0.2-0.9,0.3-1.7,0.4-2.6
			c0.1-0.6,0.2-1.3,0.2-1.9c0.1-0.7,0.2-1.5,0.3-2.2c0.1-0.8,0.1-1.7,0.2-2.5c0-0.6,0.1-1.2,0.1-1.7c0.1-1.4,0.1-2.9,0.1-4.3
			c0-49.2-40-89.1-89.2-89.1c-2.4,0-4.8,0.1-7.1,0.3c-23.1-28.9-58-46-95.7-46c-1.3,0-2.7,0-4,0.1c-0.4,0-0.8,0-1.2,0.1
			c-0.9,0-1.8,0.1-2.8,0.1c-0.5,0-0.9,0.1-1.4,0.1c-0.9,0.1-1.8,0.1-2.7,0.2c-0.4,0-0.8,0.1-1.2,0.1c-1.1,0.1-2.2,0.3-3.3,0.4
			c-0.2,0-0.4,0-0.6,0.1c-1.3,0.2-2.7,0.4-4,0.6c-0.2,0-0.3,0.1-0.5,0.1c-1.1,0.2-2.3,0.4-3.4,0.7c-0.3,0.1-0.6,0.1-0.9,0.2
			c-1,0.2-2,0.5-3.1,0.7c-0.3,0.1-0.6,0.1-0.8,0.2c-1.1,0.3-2.3,0.6-3.4,0.9c-0.1,0-0.2,0.1-0.4,0.1c-2.6,0.8-5.3,1.6-7.8,2.5
			c0,0-0.1,0-0.1,0.1c-1.2,0.4-2.4,0.9-3.6,1.4c-0.1,0-0.2,0.1-0.3,0.1c-1.2,0.5-2.4,1-3.6,1.5c0,0,0,0-0.1,0
			c-5.1,2.2-10,4.8-14.7,7.7c0,0,0,0,0,0l0,0c0,0,0,0,0,0c0,0,0,0,0,0c-18.9-11.6-40.9-18-64-18c-37.7,0-72.6,17.1-95.7,46
			c-2.4-0.2-4.8-0.3-7.1-0.3C40,150.9,0,190.8,0,240c0,23,9,43.8,23.4,59.6c-1.7,2.2-3.3,4.5-4.9,6.8c0,0,0,0,0,0.1
			c-1.5,2.3-3,4.7-4.3,7.1c0,0,0,0,0,0.1c-3.4,6.1-6.3,12.6-8.5,19.4c0,0,0,0,0,0.1c-0.9,2.7-1.7,5.4-2.3,8.2c0,0,0,0.1,0,0.1
			c-0.7,2.8-1.2,5.6-1.7,8.4c0,0,0,0.1,0,0.1c-0.7,4.3-1.2,8.7-1.4,13.1c0,0,0,0,0,0c0,0,0,0,0,0c0,0.9-0.1,1.7-0.1,2.6
			c0,0.8,0,1.6,0,2.4c0,61.8,50.3,112,112,112c13.7,0,27.1-2.5,39.7-7.3c29,25.3,65.7,39.3,104.3,39.3s75.3-14.1,104.3-39.3
			c12.6,4.8,26,7.3,39.7,7.3c61.8,0,112-50.2,112-112c0-1.5,0-3-0.1-4.5C511.8,361.8,511.7,360.2,511.6,358.6z M408.5,288.5
			c-0.9-0.1-1.8-0.2-2.6-0.3C406.7,288.3,407.6,288.4,408.5,288.5z M412.4,256.7c0.3,0,0.6,0.1,0.8,0.1
			C413,256.8,412.7,256.8,412.4,256.7z M416,257.2c0.5,0.1,1.1,0.1,1.6,0.2C417,257.3,416.5,257.3,416,257.2z M420,257.9
			c0.6,0.1,1.2,0.2,1.8,0.3C421.2,258.1,420.6,258,420,257.9z M424.1,258.7c0.6,0.1,1.2,0.3,1.8,0.4
			C425.4,259,424.7,258.9,424.1,258.7z M428.2,259.7c0.6,0.2,1.3,0.3,1.9,0.5C429.5,260.1,428.8,259.9,428.2,259.7z M432.2,260.9
			c0.6,0.2,1.3,0.4,1.9,0.6C433.5,261.3,432.9,261.1,432.2,260.9z M436.2,262.2c0.6,0.2,1.3,0.5,1.9,0.7
			C437.5,262.6,436.9,262.4,436.2,262.2z M440.1,263.6c0.6,0.3,1.3,0.5,1.9,0.8C441.4,264.2,440.8,263.9,440.1,263.6z M444,265.2
			c0.7,0.3,1.3,0.6,2,0.9C445.3,265.8,444.6,265.5,444,265.2z M447.8,267c0.7,0.3,1.3,0.7,2,1C449.1,267.6,448.4,267.3,447.8,267z
			 M451.5,268.8c0.7,0.4,1.3,0.7,2,1.1C452.8,269.6,452.2,269.2,451.5,268.8z M455.1,270.9c0.7,0.4,1.4,0.8,2.1,1.2
			C456.5,271.7,455.8,271.3,455.1,270.9z M479.7,360.8c-0.1-1-0.2-2.1-0.3-3.1C479.5,358.8,479.6,359.8,479.7,360.8z M401.1,187.2
			c6.7-2.8,14.1-4.3,21.7-4.3c31.6,0,57.2,25.6,57.2,57.1c0,0.9,0,1.8-0.1,2.7c0,0.4-0.1,0.7-0.1,1.1c0,0.5-0.1,1-0.1,1.6
			c0,0.5-0.1,0.9-0.2,1.4c0,0.4-0.1,0.8-0.1,1.2c-0.1,0.5-0.2,1.1-0.3,1.6c-0.1,0.3-0.1,0.7-0.2,1c-0.1,0.6-0.2,1.2-0.4,1.7
			c-0.1,0.3-0.1,0.5-0.2,0.8c-0.2,0.6-0.3,1.3-0.5,1.9c-0.1,0.2-0.1,0.4-0.2,0.6c-0.2,0.7-0.4,1.3-0.6,2c0,0.1-0.1,0.3-0.1,0.4
			c-0.2,0.7-0.5,1.4-0.8,2.1c0,0.1-0.1,0.2-0.1,0.3c-0.3,0.7-0.6,1.4-0.9,2.2c0,0.1,0,0.1-0.1,0.2c-0.3,0.7-0.7,1.5-1,2.2
			c0,0,0,0.1,0,0.1c-0.4,0.7-0.8,1.5-1.2,2.2c0,0,0,0,0,0c-2,3.7-4.4,7.1-7.2,10.2l0,0c-0.1,0.1-0.1,0.2-0.2,0.2
			c-1.1-0.8-2.3-1.6-3.4-2.4c1.1,0.8,2.3,1.6,3.4,2.4c0.1-0.1,0.1-0.2,0.2-0.2c-17.3-12.6-38.2-20.3-60.9-21.3c0,0,0,0,0,0
			c-1.6-0.1-3.2-0.1-4.9-0.1c-5.3,0-10.6,0.4-15.8,1.1c-0.6-0.8-1.1-1.5-1.7-2.2l0,0c-9.7-12.7-21-23.8-33.7-32.9l0,0c0,0,0,0,0,0
			c-7-5-14.3-9.5-22-13.3c0,0-0.1,0-0.1,0c-1.5-0.7-3-1.5-4.5-2.1c-0.1,0-0.2-0.1-0.3-0.1c-1.5-0.7-2.9-1.3-4.4-1.9
			c-0.1,0-0.2-0.1-0.3-0.1c-1.5-0.6-3.1-1.3-4.7-1.9c0,0,0,0,0,0c-11.2-4.3-23-7.3-35.2-9c0,0,0,0-0.1,0c-7-0.9-14.2-1.5-21.4-1.5
			c-6.9,0-13.7,0.5-20.5,1.3c-0.5,0.1-1,0.1-1.5,0.2c-1.1,0.2-2.2,0.3-3.2,0.5c-24.6,3.9-47.7,13.6-67.6,27.9c0,0.1-0.1,0.2-0.1,0.4
			c0-0.1,0.1-0.2,0.1-0.4h0c2.8-8.5,7.6-16.1,13.8-22.3c0,0,0,0,0,0c0.5-0.5,1-1,1.6-1.5c0,0,0,0,0,0c0.5-0.5,1-1,1.6-1.4
			c0,0,0,0,0.1-0.1c0.5-0.5,1.1-0.9,1.6-1.3c0,0,0.1-0.1,0.1-0.1c0.5-0.4,1.1-0.8,1.6-1.3c0.1,0,0.1-0.1,0.2-0.1
			c0.5-0.4,1.1-0.8,1.6-1.2c0.1-0.1,0.2-0.1,0.2-0.1c0.5-0.4,1.1-0.7,1.6-1.1c0.1-0.1,0.2-0.1,0.3-0.2c0.5-0.3,1.1-0.6,1.6-1
			c0.1-0.1,0.2-0.1,0.4-0.2c0.5-0.3,1-0.6,1.6-0.9c0.1-0.1,0.3-0.1,0.4-0.2c0.5-0.3,1-0.5,1.5-0.8c0.2-0.1,0.3-0.2,0.5-0.2
			c0.5-0.2,1-0.5,1.5-0.7c0.2-0.1,0.4-0.2,0.6-0.2c0.5-0.2,1-0.4,1.5-0.6c0.2-0.1,0.5-0.2,0.7-0.3c0.5-0.2,0.9-0.3,1.4-0.5
			c0.3-0.1,0.5-0.2,0.8-0.2c0.5-0.1,0.9-0.3,1.4-0.4c0.3-0.1,0.6-0.1,0.8-0.2c0.4-0.1,0.9-0.3,1.3-0.4c0.3-0.1,0.6-0.1,0.9-0.2
			c0.4-0.1,0.9-0.2,1.3-0.3c0.3-0.1,0.7-0.1,1-0.2c0.4-0.1,0.8-0.2,1.2-0.2c0.4-0.1,0.8-0.1,1.1-0.2c0.4-0.1,0.8-0.1,1.1-0.2
			c0.4-0.1,0.8-0.1,1.2-0.1c0.4,0,0.7-0.1,1.1-0.1c0.5,0,1-0.1,1.4-0.1c0.3,0,0.6,0,0.9-0.1c0.8,0,1.6,0,2.4,0
			c7.8,0,15.1,1.6,21.8,4.3c0.5-1,1.1-2,1.6-3c0.2-0.3,0.3-0.6,0.5-0.9c0.4-0.7,0.8-1.4,1.3-2.1c0.2-0.3,0.4-0.6,0.6-0.9
			c0.4-0.7,0.9-1.4,1.4-2.1c0.2-0.3,0.3-0.5,0.5-0.8c0.5-0.8,1.1-1.6,1.6-2.3c0.1-0.1,0.2-0.3,0.3-0.4c2.8-3.9,6-7.5,9.4-10.9l0,0
			c7.7-7.7,16.7-14,26.6-18.5c0.2-0.1,0.4-0.2,0.6-0.3c0.6-0.3,1.3-0.6,1.9-0.8c0.3-0.1,0.7-0.3,1-0.4c0.6-0.2,1.1-0.4,1.7-0.7
			c0.3-0.1,0.6-0.2,1-0.4c0.8-0.3,1.7-0.6,2.5-0.9c0.2-0.1,0.4-0.1,0.6-0.2c0.7-0.2,1.4-0.5,2.2-0.7c0.3-0.1,0.7-0.2,1-0.3
			c0.6-0.2,1.2-0.3,1.9-0.5c0.3-0.1,0.6-0.2,0.9-0.2c0.9-0.2,1.8-0.4,2.7-0.6c0.1,0,0.2,0,0.4-0.1c0.8-0.2,1.6-0.3,2.5-0.5
			c0.3-0.1,0.6-0.1,0.9-0.2c0.7-0.1,1.4-0.2,2-0.3c0.3,0,0.6-0.1,0.9-0.1c1-0.1,1.9-0.3,2.9-0.4c0.1,0,0.1,0,0.2,0
			c0.9-0.1,1.8-0.2,2.8-0.3c0.3,0,0.6,0,0.9-0.1c0.7,0,1.4-0.1,2.2-0.1c0.3,0,0.6,0,0.9,0c1,0,2-0.1,3-0.1
			C355.5,137.2,386,157.6,401.1,187.2z M458.7,273c0.8,0.5,1.5,1,2.3,1.5C460.2,274,459.5,273.5,458.7,273z M347.6,263.3
			c-0.6-0.6-1.2-1.3-1.9-1.9C346.4,262,347,262.7,347.6,263.3z M350.3,266.2c-0.6-0.7-1.2-1.3-1.9-2
			C349.1,264.8,349.7,265.5,350.3,266.2z M369.4,293.7c-0.9-1.8-1.9-3.6-3-5.4C367.4,290.1,368.4,291.9,369.4,293.7z M365.6,287
			c-0.4-0.7-0.8-1.3-1.2-2C364.8,285.7,365.2,286.3,365.6,287z M363.5,283.6c-0.4-0.7-0.8-1.3-1.3-2
			C362.7,282.3,363.1,282.9,363.5,283.6z M361.3,280.3c-0.4-0.7-0.9-1.3-1.3-1.9C360.4,278.9,360.9,279.6,361.3,280.3z M359.1,277
			c-0.5-0.7-1-1.3-1.4-2C358.1,275.7,358.6,276.4,359.1,277z M356.8,274c-1.9-2.4-3.8-4.8-5.9-7.1C353,269.2,354.9,271.5,356.8,274z
			 M139.9,293.1c-1-0.4-2-0.7-3.1-1.1C137.9,292.4,138.9,292.7,139.9,293.1z M136.5,291.9c-0.9-0.3-1.9-0.6-2.9-0.9
			C134.6,291.3,135.5,291.6,136.5,291.9z M133,290.8c-0.9-0.2-1.8-0.5-2.7-0.7C131.2,290.4,132.1,290.6,133,290.8z M234.8,193.4
			c-0.1,0-0.2,0-0.3,0C234.6,193.5,234.7,193.5,234.8,193.4z M229.7,194.2c-0.2,0-0.4,0.1-0.6,0.1
			C229.3,194.3,229.5,194.3,229.7,194.2z M224.3,195.2c-0.1,0-0.1,0-0.2,0C224.2,195.3,224.2,195.2,224.3,195.2z M219.3,196.4
			c-0.1,0-0.2,0-0.2,0.1C219.1,196.4,219.2,196.4,219.3,196.4z M214.4,197.6c-0.2,0.1-0.4,0.1-0.6,0.2
			C214,197.7,214.2,197.7,214.4,197.6z M209.2,199.1c-0.1,0-0.2,0.1-0.3,0.1C209,199.2,209.1,199.2,209.2,199.1z M204.3,200.8
			c-0.1,0-0.1,0-0.2,0.1C204.2,200.8,204.3,200.8,204.3,200.8z M199.7,202.5c-0.2,0.1-0.5,0.2-0.7,0.3
			C199.2,202.6,199.4,202.5,199.7,202.5z M194.7,204.5c-0.2,0.1-0.3,0.1-0.5,0.2C194.3,204.6,194.5,204.5,194.7,204.5z M189.9,206.6
			c-0.1,0-0.1,0.1-0.2,0.1C189.8,206.6,189.9,206.6,189.9,206.6z M185.5,208.7c-0.2,0.1-0.5,0.2-0.7,0.4
			C185,208.9,185.3,208.8,185.5,208.7z M180.8,211.2c-0.2,0.1-0.4,0.2-0.6,0.4C180.4,211.4,180.6,211.3,180.8,211.2z M176.2,213.8
			c0,0-0.1,0.1-0.1,0.1C176.1,213.8,176.1,213.8,176.2,213.8z M172.1,216.3c-0.2,0.2-0.5,0.3-0.7,0.5
			C171.6,216.6,171.8,216.4,172.1,216.3z M167.6,219.2c-0.2,0.2-0.5,0.3-0.7,0.5C167.1,219.5,167.3,219.3,167.6,219.2z M245.4,130.5
			C245.3,130.5,245.3,130.6,245.4,130.5C245.3,130.6,245.3,130.5,245.4,130.5z M242,133.2C242,133.2,241.9,133.2,242,133.2
			C241.9,133.2,242,133.2,242,133.2z M232.5,142c-0.1,0.1-0.2,0.2-0.2,0.2C232.3,142.1,232.4,142,232.5,142z M89.2,182.9
			c7.7,0,15,1.6,21.7,4.3c15.1-29.6,45.6-50,81.1-50c13.4,0,26,2.9,37.4,8.1c-0.8,0.9-1.7,1.9-2.5,2.8c0,0-0.1,0.1-0.1,0.1
			c-0.8,1-1.7,2-2.5,3c-2.4-0.2-4.8-0.3-7.2-0.3c-49.1,0-89.1,40-89.1,89.1c0,0.6,0,1.3,0,1.9c0,0.3,0,0.5,0,0.8
			c0,0.4,0,0.7,0.1,1.1c0,0.3,0,0.7,0.1,1c0,0.3,0,0.6,0.1,0.9c0,0.4,0.1,0.8,0.1,1.1c0,0.2,0,0.5,0.1,0.7c0,0.4,0.1,0.8,0.1,1.3
			c0,0.2,0,0.4,0.1,0.6c0.1,0.5,0.1,0.9,0.2,1.4c0,0.1,0,0.3,0.1,0.4c0.1,0.5,0.2,1.1,0.2,1.6c0,0.1,0,0.2,0,0.2
			c0.1,0.6,0.2,1.2,0.3,1.8c-0.6,0.7-1.1,1.5-1.7,2.2c-5.2-0.8-10.5-1.1-15.8-1.1c-1.6,0-3.2,0-4.8,0.1c0,0,0,0,0,0c0,0,0,0,0,0
			c-2.8,0.1-5.6,0.3-8.4,0.7c0,0,0,0,0,0c-2.8,0.3-5.5,0.8-8.2,1.3c0,0,0,0,0,0c-2.7,0.5-5.4,1.2-8,1.9c0,0,0,0,0,0
			c-2.6,0.7-5.2,1.5-7.7,2.4c0,0,0,0-0.1,0c-2.5,0.9-5,1.9-7.5,3c0,0,0,0,0,0c-2.5,1.1-4.9,2.2-7.2,3.5c0,0,0,0,0,0
			c-2.4,1.3-4.7,2.6-6.9,4c0,0,0,0,0,0c-2.3,1.4-4.5,2.9-6.6,4.5C37.5,267.3,32,254.4,32,240C32,208.4,57.6,182.9,89.2,182.9z
			 M129.3,289.9c-0.8-0.2-1.6-0.4-2.5-0.5C127.6,289.6,128.5,289.7,129.3,289.9z M46.8,321.7c-0.6,0.9-1.2,1.8-1.8,2.7
			C45.6,323.4,46.2,322.6,46.8,321.7z M44.9,324.5c-4.4,6.7-7.7,14.1-9.9,22C37.1,338.6,40.5,331.2,44.9,324.5z M34.9,346.8
			c-0.3,1-0.6,2.1-0.8,3.2C34.3,348.9,34.6,347.8,34.9,346.8z M34,350.3c-0.2,1-0.4,2.1-0.6,3.2C33.5,352.4,33.7,351.4,34,350.3z
			 M33.3,353.9c-0.2,1.1-0.4,2.1-0.5,3.2C32.9,356.1,33.1,355,33.3,353.9z M32.7,357.5c-0.1,1.1-0.3,2.3-0.4,3.4
			C32.4,359.7,32.6,358.6,32.7,357.5z M34,287.7C34,287.7,34,287.7,34,287.7C34,287.7,34,287.7,34,287.7z M72.4,298.5
			c-8,4.6-15.2,10.5-21.2,17.5C57.2,309,64.4,303.1,72.4,298.5z M51.1,316.1c-0.7,0.8-1.4,1.7-2,2.5
			C49.7,317.8,50.4,316.9,51.1,316.1z M48.9,318.9c-0.7,0.8-1.3,1.7-1.9,2.5C47.6,320.6,48.2,319.7,48.9,318.9z M106.2,288.2
			c-11,0.8-21.4,3.8-30.7,8.6C84.8,292,95.2,289,106.2,288.2z M75.5,296.8c-1,0.5-2,1.1-3,1.6C73.4,297.9,74.4,297.4,75.5,296.8z
			 M28.5,293.5C28.5,293.5,28.5,293.5,28.5,293.5C28.5,293.5,28.5,293.5,28.5,293.5z M400,448c-17.1,0-32.9-5.5-45.9-14.7
			C330.6,461.6,295.6,480,256,480s-74.6-18.4-98.1-46.7c-13,9.2-28.8,14.7-45.9,14.7c-44.2,0-80-35.8-80-80c0-2.4,0.1-4.8,0.3-7.1
			c1.4-15.7,7.6-29.9,16.7-41.7c7.6-9.8,17.3-17.8,28.6-23.2c8.8-4.2,18.3-7,28.5-7.8c1.9-0.1,3.9-0.2,5.8-0.2c0,0,0,0,0,0h0
			c0,0,0,0,0,0c0,0,0,0,0,0l12.6,1.2c5.3,0.9,10.4,2.1,15.3,3.8c0.8,0.3,1.7,0.6,2.5,1c0,0,0,0,0,0l0,0c0.1-0.1,0.1-0.2,0.2-0.3
			c-0.1,0.1-0.1,0.2-0.2,0.3c0,0,0,0,0,0c0.1-0.1,0.1-0.2,0.2-0.3c0,0,0,0,0,0c0.5-0.9,1.1-1.8,1.6-2.7c5.6-10.3,12.6-19.7,20.7-28
			c1-1.1,2.1-2.1,3.2-3.2c0.2-0.2,0.4-0.4,0.7-0.6c1.1-1,2.1-2,3.2-3c0.2-0.2,0.4-0.3,0.6-0.5c1-0.9,2.1-1.8,3.1-2.7
			c0.1-0.1,0.3-0.2,0.4-0.4c1.1-0.9,2.3-1.9,3.5-2.8c0.2-0.2,0.5-0.3,0.7-0.5c1.2-0.9,2.4-1.8,3.7-2.7c0,0,0.1,0,0.1-0.1
			c1.2-0.9,2.5-1.7,3.8-2.5c0.2-0.1,0.4-0.2,0.6-0.4c1.3-0.8,2.6-1.6,3.9-2.4c0.2-0.1,0.3-0.2,0.5-0.3c1.4-0.8,2.7-1.6,4.1-2.3
			c0,0,0,0,0,0c1.4-0.7,2.8-1.5,4.2-2.2c0.2-0.1,0.4-0.2,0.5-0.3c2.9-1.4,5.9-2.7,8.9-3.9c0.1,0,0.2-0.1,0.3-0.1
			c1.5-0.6,3-1.1,4.6-1.7c0.1,0,0.2-0.1,0.3-0.1c3.1-1.1,6.3-2,9.5-2.8c0.1,0,0.2-0.1,0.4-0.1c1.5-0.4,3.1-0.7,4.6-1.1
			c-0.4,0.1-0.7,0.2-1.1,0.2c0.5-0.1,0.9-0.2,1.4-0.3c-0.1,0-0.2,0-0.3,0.1c0.2,0,0.4-0.1,0.5-0.1c-0.1,0-0.2,0-0.2,0
			c0.2,0,0.3-0.1,0.5-0.1c-0.1,0-0.2,0-0.3,0.1c1.6-0.3,3.3-0.6,4.9-0.9c-1.1,0.2-2.2,0.4-3.4,0.6c7.7-1.5,15.6-2.3,23.7-2.3
			c16.3,0,31.8,3.1,46,8.7c-6.5-2.5-13.2-4.5-20.2-6c25.4,5.3,47.9,18.3,65.3,36.3c8.1,8.4,15,17.8,20.7,28c0.5,0.9,1.1,1.8,1.6,2.7
			c0.1,0.1,0.1,0.2,0.2,0.3c0,0,0,0,0,0l0,0c0.8-0.3,1.7-0.7,2.5-1c-0.8,0.3-1.7,0.6-2.5,1c0,0,0,0,0,0c0.8-0.3,1.7-0.7,2.5-1
			c0,0,0,0,0,0c2.4-0.9,4.8-1.6,7.3-2.2c0.1,0,0.3-0.1,0.4-0.1c1.2-0.3,2.3-0.5,3.5-0.8c0.2,0,0.3-0.1,0.5-0.1
			c1.2-0.2,2.4-0.5,3.6-0.7L400,288c0,0,0,0,0,0l0,0c0.5,0,0.9,0,1.4,0c-0.4,0-0.9,0-1.3,0c1.1,0,2.2,0,3.4,0.1
			c0.8,0,1.6,0.1,2.4,0.1c3.8,0.3,7.5,0.9,11.1,1.7c0,0,0.1,0,0.1,0c1.2,0.3,2.3,0.6,3.5,0.9c0,0,0.1,0,0.1,0
			c2.3,0.6,4.5,1.4,6.7,2.2c0.2,0.1,0.3,0.1,0.5,0.2c1,0.4,2,0.8,3,1.2c0.2,0.1,0.3,0.1,0.5,0.2c1,0.4,2,0.9,3,1.4
			c11.3,5.4,21,13.4,28.6,23.2c0.6,0.8,1.2,1.6,1.8,2.4c0.2,0.3,0.4,0.6,0.6,0.8c0.4,0.5,0.8,1.1,1.1,1.7c0.2,0.3,0.4,0.7,0.7,1
			c0.3,0.5,0.7,1,1,1.5c0.2,0.4,0.4,0.7,0.7,1.1c0.3,0.5,0.6,1,0.9,1.5c0.2,0.4,0.4,0.8,0.6,1.2c0.3,0.5,0.5,1,0.8,1.5
			c0.2,0.4,0.4,0.8,0.6,1.2c0.3,0.5,0.5,1.1,0.8,1.6c0.2,0.4,0.4,0.8,0.5,1.1c0.4,0.8,0.7,1.7,1.1,2.5c0.2,0.5,0.4,1,0.6,1.4
			c0.2,0.5,0.4,1,0.6,1.6c0.2,0.5,0.3,1,0.5,1.5c0.2,0.5,0.3,0.9,0.5,1.4c0.2,0.5,0.3,1,0.5,1.6c0.1,0.5,0.3,0.9,0.4,1.4
			c0.1,0.5,0.3,1.1,0.4,1.6c0.1,0.4,0.2,0.9,0.3,1.3c0.1,0.6,0.3,1.1,0.4,1.7c0.1,0.4,0.2,0.9,0.3,1.3c0.1,0.6,0.2,1.2,0.3,1.8
			c0.1,0.4,0.1,0.8,0.2,1.2c0.2,1.6,0.5,3.1,0.6,4.7c0.2,2.4,0.3,4.7,0.3,7.2C480,412.2,444.2,448,400,448z M125.5,289.2
			c-0.8-0.1-1.5-0.3-2.3-0.4C124,288.9,124.8,289.1,125.5,289.2z M121.6,288.6c-0.7-0.1-1.3-0.2-2-0.2
			C120.3,288.4,120.9,288.5,121.6,288.6z M117.4,288.2c-0.5,0-1.1-0.1-1.6-0.1C116.4,288.1,116.9,288.2,117.4,288.2z M226.2,227.6
			c0.3-0.1,0.5-0.1,0.8-0.2C226.8,227.4,226.5,227.5,226.2,227.6z M344.9,260.5c-0.6-0.6-1.3-1.3-2-1.9
			C343.6,259.3,344.2,259.9,344.9,260.5z M342.1,257.9c-0.7-0.7-1.4-1.3-2.1-2C340.7,256.6,341.4,257.2,342.1,257.9z M339.6,255.6
			c-3.5-3.1-7.2-6-11-8.7C332.4,249.6,336.1,252.5,339.6,255.6z M328.1,246.6c-0.9-0.6-1.8-1.2-2.7-1.8
			C326.4,245.4,327.3,246,328.1,246.6z M325,244.5c-0.9-0.6-1.8-1.2-2.8-1.8C323.1,243.3,324,243.9,325,244.5z M321.8,242.5
			c-6.3-3.8-12.9-7.1-19.8-9.8C309,235.4,315.6,238.7,321.8,242.5z M403.5,288.1c-0.6,0-1.1,0-1.7-0.1
			C402.3,288,402.9,288.1,403.5,288.1z M493.4,307.1c-0.5-0.8-1.1-1.6-1.6-2.4C492.3,305.5,492.9,306.3,493.4,307.1z M511.3,356.3
			c-0.1-0.7-0.1-1.5-0.2-2.2C511.2,354.8,511.3,355.6,511.3,356.3z M510.8,351.8c-0.1-0.7-0.2-1.5-0.3-2.2
			C510.6,350.4,510.7,351.1,510.8,351.8z M510,347.4c-0.1-0.7-0.3-1.5-0.4-2.2C509.7,345.9,509.9,346.7,510,347.4z M509.1,343
			c-0.2-0.7-0.3-1.4-0.5-2.2C508.7,341.6,508.9,342.3,509.1,343z M508,338.7c-0.2-0.7-0.4-1.4-0.6-2.1
			C507.5,337.3,507.8,338,508,338.7z M506.7,334.5c-0.2-0.7-0.5-1.4-0.7-2.1C506.2,333.1,506.4,333.8,506.7,334.5z M505.2,330.4
			c-0.3-0.7-0.5-1.4-0.8-2.1C504.7,328.9,505,329.6,505.2,330.4z M503.6,326.3c-0.3-0.7-0.6-1.4-0.9-2.1
			C503,324.9,503.3,325.6,503.6,326.3z M501.9,322.3c-0.3-0.7-0.7-1.4-1-2.1C501.2,320.9,501.5,321.6,501.9,322.3z M500,318.3
			c-0.4-0.7-0.7-1.4-1.1-2.1C499.2,316.9,499.6,317.6,500,318.3z M497.9,314.5c-0.4-0.7-0.8-1.4-1.2-2.1
			C497.1,313.1,497.5,313.8,497.9,314.5z M495.7,310.7c-0.4-0.7-0.9-1.5-1.4-2.2C494.8,309.3,495.3,310,495.7,310.7z"/>
		<path class="st1" d="M400.1,288C400.1,288,400,288,400.1,288l-0.1,0C400,288,400,288,400.1,288C400,288,400.1,288,400.1,288z"/>
		<path class="st1" d="M281.3,226.6c-1.6-0.3-3.3-0.6-4.9-0.9C278,225.9,279.7,226.2,281.3,226.6z"/>
		<path class="st1" d="M281.8,226.7c-0.2,0-0.4-0.1-0.5-0.1C281.5,226.6,281.6,226.6,281.8,226.7z"/>
	</g>
</g>
<g id="Layer_2">
	<path class="st0" d="M473.4,215.3c-49.9,49.9-131.1,49.9-181,0c-49.9-49.9-49.9-131.1,0-181c13.2-13.2,29.3-23.3,47.8-29.8
		c5.8-2,12.3-0.6,16.6,3.8c4.4,4.4,5.9,10.8,3.8,16.6c-12.5,35.4-4,73.7,22.2,99.9c26.2,26.2,64.5,34.8,99.9,22.3
		c5.8-2.1,12.3-0.6,16.6,3.8c4.4,4.3,5.8,10.8,3.8,16.6C496.7,186,486.6,202.1,473.4,215.3z M315.1,56.9
		c-37.4,37.4-37.4,98.4,0,135.8c40,40,108.1,36.4,143-8.2c-36,2.3-71.4-10.7-97.8-37.1c-26.4-26.4-39.3-61.8-37.1-97.7
		C320.4,51.9,317.6,54.3,315.1,56.9z"/>
	<path class="st1" d="M406.8,142.2c-8.1-8.4-17.3-15.5-27.4-21.2c1.1,1.3,2.3,2.5,3.5,3.7C390.1,132,398.2,137.8,406.8,142.2z"/>
	<path class="st1" d="M359.8,146.9c-11.9-12.1-21.1-26-27.3-41c-4.5-0.5-9-0.7-13.5-0.7c-10.5,0-20.8,1.3-30.7,3.9
		c-1.8,11-1.7,22.4,0.3,33.4c9.5-3.4,19.7-5.3,30.4-5.3C333.7,137.2,347.6,140.7,359.8,146.9z"/>
	<path class="st1" d="M315.1,56.9c2.6-2.6,5.3-5,8.2-7.2c-1.2,19.3,2,38.5,9.3,56.2c16.7,1.8,32.6,7.1,46.9,15.2
		C356,95,348.7,58.6,360.7,24.9c2.1-5.8,0.6-12.3-3.8-16.6c-4.3-4.4-10.8-5.8-16.6-3.8c-18.5,6.6-34.6,16.6-47.8,29.8
		c-24.6,24.5-37,56.7-37.4,88.9c10.3-6.3,21.5-11.1,33.3-14.1C291.5,89.9,300.4,71.6,315.1,56.9z"/>
	<path class="st1" d="M421.8,150.9c29.7,0,56.1,14.6,72.3,37c3.6-6.4,6.6-13.2,9.1-20.4c2.1-5.8,0.6-12.3-3.8-16.6
		c-4.4-4.4-10.8-5.9-16.6-3.8c-25.7,9.1-53,7.1-76-4.8c2.8,2.8,5.4,5.8,7.9,8.9C417.1,151,419.4,150.9,421.8,150.9z"/>
</g>
</svg>
