<?xml version="1.0" encoding="utf-8"?>
<!-- Generator: Adobe Illustrator 19.2.0, SVG Export Plug-In . SVG Version: 6.00 Build 0)  -->
<svg version="1.1" id="icon" xmlns="http://www.w3.org/2000/svg" xmlns:xlink="http://www.w3.org/1999/xlink" x="0px" y="0px"
	 viewBox="0 0 512 512" style="enable-background:new 0 0 512 512;" xml:space="preserve">
<style type="text/css">
	.st0{fill:#F8A724;}
	.st1{fill:#FFFFFF;}
</style>
<g>
	<path class="st0" d="M367.8,161.8c-1.7-23.6-12.1-45.5-29.2-61.6c8.9-3.7,18.5-5.6,28.4-5.6c40.7,0,73.9,33.1,73.9,73.9
		c0,13-3.4,25.2-9.3,35.8c0.4,0.8,0.9,1.6,1.3,2.4c5.7,1.9,11.2,4.3,16.4,7.1c7.4-13.4,11.7-28.9,11.7-45.3
		c0-51.8-42.1-93.9-93.9-93.9c-18.6,0-36.5,5.4-52,15.7l-12.5,8.3L315,107c18.9,12.6,30.8,32.8,32.7,55.1c3.6-0.5,7.2-0.7,10.9-0.7
		C361.7,161.3,364.8,161.5,367.8,161.8z"/>
	<path class="st1" d="M403.2,392.6H101.3c-48.4,0-87.8-39.4-87.8-87.8c0-48.3,39.3-87.7,87.6-87.8c7.9-26.4,23.8-50.1,45.4-67.4
		c24.1-19.4,54.5-30.1,85.6-30.1c39.2,0,76,16.6,102,45.7c8-2.5,16.2-3.7,24.7-3.7c31.4,0,60,17.7,74.1,45.4
		c38.9,12.7,65.7,49.3,65.7,90.6C498.5,349.9,455.7,392.6,403.2,392.6z M101.3,236.9c-37.4,0-67.8,30.4-67.8,67.8
		s30.4,67.8,67.8,67.8h301.8c41.5,0,75.3-33.8,75.3-75.3c0-33.9-22.8-63.8-55.5-72.7l-4.6-1.3l-1.9-4.3
		c-10.1-22.9-32.9-37.7-57.9-37.7c-8.3,0-16.4,1.6-24,4.7l-6.9,2.8l-4.7-5.8c-22.3-27.8-55.5-43.7-91-43.7
		c-54.6,0-101.3,37.1-113.6,90.2l-2,8.5l-8.7-0.8C105.5,237,103.4,236.9,101.3,236.9z"/>
</g>
</svg>
