<?xml version="1.0" encoding="utf-8"?>
<!-- Generator: Adobe Illustrator 19.2.0, SVG Export Plug-In . SVG Version: 6.00 Build 0)  -->
<svg version="1.1" id="icon" xmlns="http://www.w3.org/2000/svg" xmlns:xlink="http://www.w3.org/1999/xlink" x="0px" y="0px"
	 viewBox="0 0 512 512" style="enable-background:new 0 0 512 512;" xml:space="preserve">
<style type="text/css">
	.st0{fill:#F8A724;}
	.st1{fill:#FFFFFF;}
</style>
<g>
	<path class="st0" d="M314.3,291.6c-51.8,0-93.9-42.1-93.9-93.9c0-51.8,42.1-93.9,93.9-93.9c51.8,0,93.9,42.1,93.9,93.9
		C408.1,249.5,366,291.6,314.3,291.6z M314.3,123.9c-40.7,0-73.9,33.1-73.9,73.9c0,40.7,33.1,73.9,73.9,73.9s73.9-33.1,73.9-73.9
		C388.1,157,355,123.9,314.3,123.9z"/>
	
		<rect x="418.2" y="270.9" transform="matrix(0.7071 -0.7071 0.7071 0.7071 -93.2184 393.3777)" class="st0" width="20" height="76.6"/>
	
		<rect x="190.3" y="47.9" transform="matrix(0.7071 -0.7071 0.7071 0.7071 -2.3197 166.8938)" class="st0" width="20" height="76.6"/>
	
		<rect x="387.4" y="73.8" transform="matrix(0.7071 -0.7071 0.7071 0.7071 65.4733 325.585)" class="st0" width="76.6" height="20"/>
	<rect x="306" y="318.8" class="st0" width="20" height="76.6"/>
	<rect x="302.5" class="st0" width="20" height="76.6"/>
	<rect x="116.5" y="189.5" class="st0" width="76.6" height="20"/>
	<path class="st0" d="M236.9,291.7l-14.1-14.1l-33.3,33.3c7,1.5,13.6,4.7,19,9.2L236.9,291.7z"/>
	<rect x="435.4" y="186" class="st0" width="76.6" height="20"/>
	<path class="st1" d="M201.2,430.3H57.7c-25.9,0-47-21.1-47-47c0-24.6,19-44.8,43-46.8c4.3-12.1,12-22.9,22.1-31.1
		c12.4-10,28-15.5,44-15.5c19.1,0,37,7.6,50.2,21.1c3.3-0.8,6.6-1.1,10-1.1c16.2,0,31,8.7,38.9,22.5c19.5,7.3,32.8,26.2,32.8,47.4
		C251.7,407.6,229.1,430.3,201.2,430.3z M57.7,356.3c-14.9,0-27,12.1-27,27s12.1,27,27,27h143.5c16.9,0,30.6-13.7,30.6-30.6
		c0-13.7-9.3-25.9-22.5-29.5l-4.6-1.3l-1.9-4.3c-4-9-12.9-14.8-22.7-14.8c-3.3,0-6.4,0.6-9.4,1.9l-6.9,2.8l-4.7-5.8
		c-9.6-12-23.9-18.8-39.2-18.8c-23.5,0-43.6,16-48.9,38.8l-2,8.5l-8.7-0.8C59.3,356.4,58.5,356.3,57.7,356.3z"/>
</g>
</svg>
