<?xml version="1.0" encoding="utf-8"?>
<!-- Generator: Adobe Illustrator 19.2.0, SVG Export Plug-In . SVG Version: 6.00 Build 0)  -->
<svg version="1.1" id="icon" xmlns="http://www.w3.org/2000/svg" xmlns:xlink="http://www.w3.org/1999/xlink" x="0px" y="0px"
	 viewBox="0 0 512 512" style="enable-background:new 0 0 512 512;" xml:space="preserve">
<style type="text/css">
	.st0{fill:#F8A724;}
	.st1{fill:#FFFFFF;}
</style>
<g>
	<g>
		<path class="st0" d="M256,349.9c-51.8,0-93.9-42.1-93.9-93.9c0-51.8,42.1-93.9,93.9-93.9c51.8,0,93.9,42.1,93.9,93.9
			C349.9,307.8,307.8,349.9,256,349.9z M256,182.1c-40.7,0-73.9,33.1-73.9,73.9c0,40.7,33.1,73.9,73.9,73.9s73.9-33.1,73.9-73.9
			C329.9,215.3,296.7,182.1,256,182.1z"/>
		
			<rect x="360" y="329.2" transform="matrix(0.7071 -0.7071 0.7071 0.7071 -151.4883 369.2419)" class="st0" width="20" height="76.6"/>
		
			<rect x="132" y="106.2" transform="matrix(0.7071 -0.7071 0.7071 0.7071 -60.5896 142.758)" class="st0" width="20" height="76.6"/>
		
			<rect x="106.2" y="360" transform="matrix(0.7071 -0.7071 0.7071 0.7071 -219.2807 210.5509)" class="st0" width="76.6" height="20"/>
		
			<rect x="329.2" y="132" transform="matrix(0.7071 -0.7071 0.7071 0.7071 7.2034 301.4491)" class="st0" width="76.6" height="20"/>
		<rect x="247.8" y="377.1" class="st0" width="20" height="76.6"/>
		<rect x="244.2" y="58.3" class="st0" width="20" height="76.6"/>
		<rect x="58.3" y="247.8" class="st0" width="76.6" height="20"/>
		<rect x="377.1" y="244.2" class="st0" width="76.6" height="20"/>
	</g>
	<g>
		<path class="st1" d="M243.2,269.4V264c0-4.1,0.8-7.6,2.5-10.4c1.7-2.8,4.7-5.6,9-8.3c3.4-2.1,5.9-4.1,7.4-5.8
			c1.5-1.7,2.2-3.7,2.2-5.9c0-1.8-0.8-3.2-2.4-4.2c-1.6-1-3.7-1.5-6.2-1.5c-6.4,0-13.8,2.3-22.3,6.8l-8.8-17.2c10.5-6,21.4-9,32.8-9
			c9.4,0,16.7,2.1,22.1,6.2c5.3,4.1,8,9.7,8,16.9c0,5.1-1.2,9.5-3.6,13.2c-2.4,3.7-6.2,7.2-11.4,10.6c-4.4,2.9-7.2,5-8.3,6.3
			c-1.1,1.3-1.7,2.9-1.7,4.7v3.2H243.2z M240.4,291.5c0-3.9,1.1-6.9,3.4-9c2.3-2.1,5.6-3.2,9.9-3.2c4.2,0,7.4,1.1,9.7,3.2
			c2.3,2.1,3.4,5.1,3.4,8.9c0,3.8-1.2,6.8-3.5,8.9s-5.5,3.2-9.6,3.2c-4.2,0-7.4-1-9.8-3.1C241.6,298.4,240.4,295.4,240.4,291.5z"/>
	</g>
</g>
</svg>
