<?xml version="1.0" encoding="utf-8"?>
<!-- Generator: Adobe Illustrator 19.2.0, SVG Export Plug-In . SVG Version: 6.00 Build 0)  -->
<svg version="1.1" id="icon" xmlns="http://www.w3.org/2000/svg" xmlns:xlink="http://www.w3.org/1999/xlink" x="0px" y="0px"
	 viewBox="0 0 512 512" style="enable-background:new 0 0 512 512;" xml:space="preserve">
<g>
	<path d="M432.8,206.7c-14.2-27.7-42.8-45.4-74.1-45.4c-8.4,0-16.7,1.3-24.7,3.7c-26-29.1-62.7-45.7-102-45.7
		c-31.1,0-61.5,10.7-85.6,30.1c-21.6,17.4-37.5,41.1-45.4,67.4c-48.3,0.2-87.6,39.5-87.6,87.8c0,48.4,39.4,87.8,87.8,87.8h301.8
		c52.6,0,95.3-42.8,95.3-95.3C498.5,256,471.7,219.4,432.8,206.7z"/>
	<path d="M92.2,440.3c0,8.5,6.9,15.4,15.4,15.4c8.5,0,15.4-6.9,15.4-15.4s-15.4-30.8-15.4-30.8S92.2,431.8,92.2,440.3z"/>
	<path d="M191.1,440.3c0,8.5,6.9,15.4,15.4,15.4s15.4-6.9,15.4-15.4s-15.4-30.8-15.4-30.8S191.1,431.8,191.1,440.3z"/>
	<path d="M290,440.3c0,8.5,6.9,15.4,15.4,15.4s15.4-6.9,15.4-15.4s-15.4-30.8-15.4-30.8S290,431.8,290,440.3z"/>
	<path d="M389,440.3c0,8.5,6.9,15.4,15.4,15.4s15.4-6.9,15.4-15.4s-15.4-30.8-15.4-30.8S389,431.8,389,440.3z"/>
	<path d="M141.7,479.3c0,8.5,6.9,15.4,15.4,15.4s15.4-6.9,15.4-15.4s-15.4-30.8-15.4-30.8S141.7,470.8,141.7,479.3z"/>
	<path d="M240.6,479.3c0,8.5,6.9,15.4,15.4,15.4s15.4-6.9,15.4-15.4S256,448.5,256,448.5S240.6,470.8,240.6,479.3z"/>
	<path d="M339.5,479.3c0,8.5,6.9,15.4,15.4,15.4s15.4-6.9,15.4-15.4s-15.4-30.8-15.4-30.8S339.5,470.8,339.5,479.3z"/>
	<polygon points="46.4,159.9 66,105.7 85.2,187.2 99.7,115.7 117.6,151.1 132.5,80.1 156.3,88.9 160.4,77.6 135,68.2 36.5,31.9 
		17.6,25 13.5,36.2 37.5,45.1 	"/>
</g>
</svg>
