<?xml version="1.0" encoding="utf-8"?>
<!-- Generator: Adobe Illustrator 19.2.0, SVG Export Plug-In . SVG Version: 6.00 Build 0)  -->
<svg version="1.1" id="icon" xmlns="http://www.w3.org/2000/svg" xmlns:xlink="http://www.w3.org/1999/xlink" x="0px" y="0px"
	 viewBox="0 0 512 512" style="enable-background:new 0 0 512 512;" xml:space="preserve">
<g>
	<path d="M403.2,392.6c52.6,0,95.3-42.8,95.3-95.3c0-41.3-26.8-77.9-65.7-90.6c-14.2-27.7-42.8-45.4-74.1-45.4
		c-8.4,0-16.7,1.3-24.7,3.7c-26-29.1-62.7-45.7-102-45.7c-31.1,0-61.5,10.7-85.6,30.1c-21.6,17.4-37.5,41.1-45.4,67.4
		c-48.3,0.2-87.6,39.5-87.6,87.8c0,48.4,39.4,87.8,87.8,87.8H403.2z"/>
	<path d="M484.8,455.3c2.5-3.5,4-7.7,4-12.3c0-11.7-9.5-21.3-21.3-21.3c-5.9,0-11.2,2.4-15,6.2l8.5,8.5c1.7-1.7,4-2.7,6.5-2.7
		c5.1,0,9.3,4.1,9.3,9.3c0,5.1-4.1,9.2-9.2,9.2H357v12h110.5v0c0,0,0,0,0,0h5v0c7.7,0,14,6.3,14,14c0,7.7-6.3,14-14,14
		c-3.9,0-7.4-1.6-9.9-4.1l-8.5,8.5c4.7,4.7,11.2,7.6,18.4,7.6c14.3,0,26-11.7,26-26C498.5,468.3,492.9,459.7,484.8,455.3z"/>
	<path d="M416.2,431H357v12h59.2c11.7,0,21.3-9.5,21.3-21.3s-9.5-21.3-21.3-21.3c-5.9,0-11.2,2.4-15,6.2l8.5,8.5
		c1.7-1.7,4-2.7,6.5-2.7c5.1,0,9.3,4.1,9.3,9.3S421.3,431,416.2,431z"/>
	<path d="M92.2,440.3c0,8.5,6.9,15.4,15.4,15.4c8.5,0,15.4-6.9,15.4-15.4s-15.4-30.8-15.4-30.8S92.2,431.8,92.2,440.3z"/>
	<path d="M191.1,440.3c0,8.5,6.9,15.4,15.4,15.4s15.4-6.9,15.4-15.4s-15.4-30.8-15.4-30.8S191.1,431.8,191.1,440.3z"/>
	<path d="M290,440.3c0,8.5,6.9,15.4,15.4,15.4s15.4-6.9,15.4-15.4s-15.4-30.8-15.4-30.8S290,431.8,290,440.3z"/>
	<path d="M141.7,479.3c0,8.5,6.9,15.4,15.4,15.4s15.4-6.9,15.4-15.4s-15.4-30.8-15.4-30.8S141.7,470.8,141.7,479.3z"/>
	<path d="M240.6,479.3c0,8.5,6.9,15.4,15.4,15.4s15.4-6.9,15.4-15.4S256,448.5,256,448.5S240.6,470.8,240.6,479.3z"/>
</g>
</svg>
