<?xml version="1.0" encoding="utf-8"?>
<!-- Generator: Adobe Illustrator 19.2.0, SVG Export Plug-In . SVG Version: 6.00 Build 0)  -->
<svg version="1.1" id="icon" xmlns="http://www.w3.org/2000/svg" xmlns:xlink="http://www.w3.org/1999/xlink" x="0px" y="0px"
	 viewBox="0 0 512 512" style="enable-background:new 0 0 512 512;" xml:space="preserve">
<g>
	<rect x="156.7" y="142.4" width="159.1" height="20"/>
	<rect x="90.3" y="209.2" width="159.1" height="20"/>
	<rect x="284.3" y="209.2" width="159.1" height="20"/>
	<rect x="138.2" y="276" width="159.1" height="20"/>
	<rect x="284.3" y="342.8" width="159.1" height="20"/>
	<rect x="67" y="342.8" width="159.1" height="20"/>
	<rect x="217.7" y="409.6" width="159.1" height="20"/>
	<path d="M28.9,78.3c0.7-0.5,1.8-0.8,3.3-0.8c2.9,0,6.4,0.9,10.4,2.8l3.5-8.9c-4.6-2.1-9.1-3.1-13.6-3.1c-5,0-9,1.1-11.8,3.3
		c-2.9,2.2-4.3,5.3-4.3,9.2c0,2.1,0.3,3.9,1,5.5c0.7,1.5,1.7,2.9,3.1,4.1c1.4,1.2,3.5,2.4,6.3,3.7c3.1,1.4,5,2.3,5.7,2.8
		c0.7,0.4,1.2,0.9,1.6,1.3s0.5,1,0.5,1.5c0,0.9-0.4,1.7-1.2,2.3c-0.8,0.6-2.1,0.9-3.8,0.9c-2,0-4.2-0.3-6.6-1
		c-2.4-0.6-4.7-1.5-6.9-2.7v10.3c2.1,1,4.1,1.7,6,2.1s4.3,0.6,7.2,0.6c3.4,0,6.4-0.6,8.9-1.7c2.5-1.1,4.5-2.7,5.8-4.8
		c1.3-2.1,2-4.4,2-7.1c0-2.9-0.7-5.3-2.2-7.2s-4-3.7-7.7-5.3c-3.8-1.8-6.2-3-7.1-3.6c-0.9-0.7-1.3-1.4-1.3-2.3
		C27.9,79.5,28.3,78.9,28.9,78.3z"/>
	<path d="M62.7,80.9l8.8,30.8h11l8.6-30.8h0.3c-0.2,4.6-0.4,7.6-0.4,8.8c0,1.2,0,2.3,0,3.3v18.8h10.6V68.9H86.1l-8.8,30.4h-0.2
		l-8.9-30.4H52.8v42.8H63V93.1c0-2.9-0.2-7-0.6-12.2H62.7z"/>
	<path d="M130,112.3c6.8,0,12-1.9,15.5-5.6c3.5-3.8,5.3-9.2,5.3-16.4c0-7.2-1.8-12.7-5.3-16.4c-3.5-3.7-8.7-5.6-15.5-5.6
		c-6.8,0-12,1.9-15.5,5.6c-3.6,3.8-5.3,9.2-5.3,16.3c0,7.2,1.8,12.7,5.4,16.5C118.1,110.4,123.3,112.3,130,112.3z M130.1,77.7
		c2.9,0,5,1,6.4,3.1c1.4,2,2.2,5.2,2.2,9.5c0,4.3-0.7,7.4-2.1,9.4c-1.4,2-3.6,3-6.5,3c-5.8,0-8.6-4.1-8.6-12.4
		C121.4,81.9,124.3,77.7,130.1,77.7z"/>
	<path d="M170.2,97.4l3.4-2.1l8.5,16.4h13.1l-13.3-23.6l13.5-19.2h-12.7l-9,13.1c-1.8,2.5-3,4.3-3.5,5.5V68.9h-11.6v42.8h11.6V97.4z
		"/>
	<polygon points="225.2,102.3 211.4,102.3 211.4,94.2 224.2,94.2 224.2,84.9 211.4,84.9 211.4,78.2 225.2,78.2 225.2,68.9 
		199.8,68.9 199.8,111.7 225.2,111.7 	"/>
</g>
</svg>
