<?xml version="1.0" encoding="utf-8"?>
<!-- Generator: Adobe Illustrator 19.2.0, SVG Export Plug-In . SVG Version: 6.00 Build 0)  -->
<svg version="1.1" id="icon" xmlns="http://www.w3.org/2000/svg" xmlns:xlink="http://www.w3.org/1999/xlink" x="0px" y="0px"
	 viewBox="0 0 512 512" style="enable-background:new 0 0 512 512;" xml:space="preserve">
<rect x="360" y="329.2" transform="matrix(0.7071 -0.7071 0.7071 0.7071 -151.4883 369.2419)" width="20" height="76.6"/>
<rect x="132" y="106.2" transform="matrix(0.7071 -0.7071 0.7071 0.7071 -60.5896 142.758)" width="20" height="76.6"/>
<rect x="106.2" y="360" transform="matrix(0.7071 -0.7071 0.7071 0.7071 -219.2807 210.5509)" width="76.6" height="20"/>
<rect x="329.2" y="132" transform="matrix(0.7071 -0.7071 0.7071 0.7071 7.2034 301.4491)" width="76.6" height="20"/>
<rect x="247.8" y="377.1" width="20" height="76.6"/>
<rect x="244.2" y="58.3" width="20" height="76.6"/>
<rect x="58.3" y="247.8" width="76.6" height="20"/>
<rect x="377.1" y="244.2" width="76.6" height="20"/>
<path d="M256,162.1c-51.8,0-93.9,42.1-93.9,93.9c0,51.8,42.1,93.9,93.9,93.9c51.8,0,93.9-42.1,93.9-93.9
	C349.9,204.2,307.8,162.1,256,162.1z M263.3,300.4c-2.3,2.1-5.5,3.2-9.6,3.2c-4.2,0-7.4-1-9.8-3.1c-2.4-2.1-3.5-5.1-3.5-8.9
	c0-3.9,1.1-6.9,3.4-9c2.3-2.1,5.6-3.2,9.9-3.2c4.2,0,7.4,1.1,9.7,3.2c2.3,2.1,3.4,5.1,3.4,8.9C266.8,295.4,265.7,298.3,263.3,300.4z
	 M283.9,244.7c-2.4,3.7-6.2,7.2-11.4,10.6c-4.4,2.9-7.2,5-8.3,6.3c-1.1,1.3-1.7,2.9-1.7,4.7v3.2h-19.4V264c0-4.1,0.8-7.6,2.5-10.4
	c1.7-2.8,4.7-5.6,9-8.3c3.4-2.1,5.9-4.1,7.4-5.8c1.5-1.7,2.2-3.7,2.2-5.9c0-1.8-0.8-3.2-2.4-4.2c-1.6-1-3.7-1.5-6.2-1.5
	c-6.4,0-13.8,2.3-22.3,6.8l-8.8-17.2c10.5-6,21.4-9,32.8-9c9.4,0,16.7,2.1,22.1,6.2c5.3,4.1,8,9.7,8,16.9
	C287.5,236.5,286.3,240.9,283.9,244.7z"/>
</svg>
