<?xml version="1.0" encoding="utf-8"?>
<!-- Generator: Adobe Illustrator 19.2.0, SVG Export Plug-In . SVG Version: 6.00 Build 0)  -->
<svg version="1.1" id="icon" xmlns="http://www.w3.org/2000/svg" xmlns:xlink="http://www.w3.org/1999/xlink" x="0px" y="0px"
	 viewBox="0 0 512 512" style="enable-background:new 0 0 512 512;" xml:space="preserve">
<style type="text/css">
	.st0{fill:#18A1CB;}
	.st1{fill:#3A7BA5;}
</style>
<g>
	<rect x="156.7" y="142.4" class="st0" width="159.1" height="20"/>
	<rect x="90.3" y="209.2" class="st0" width="159.1" height="20"/>
	<rect x="284.3" y="209.2" class="st0" width="159.1" height="20"/>
	<rect x="138.2" y="276" class="st0" width="159.1" height="20"/>
	<rect x="284.3" y="342.8" class="st0" width="159.1" height="20"/>
	<rect x="67" y="342.8" class="st0" width="159.1" height="20"/>
	<rect x="217.7" y="409.6" class="st0" width="159.1" height="20"/>
	<polygon class="st1" points="43.2,84.8 29.8,84.8 29.8,68.9 18.1,68.9 18.1,111.7 29.8,111.7 29.8,94.3 43.2,94.3 43.2,111.7 
		54.8,111.7 54.8,68.9 43.2,68.9 	"/>
	<path class="st1" d="M74.3,103.7h13.9l2.1,8H103l-14.2-43H73.4l-14,43h12.7L74.3,103.7z M80.2,80.7c0.5-2.3,0.9-3.9,1-4.9
		c0.2,1.1,0.6,2.9,1.2,5.3c0.6,2.5,1.1,4.5,1.6,6.1l1.8,7h-9.1C78.5,87.5,79.7,83,80.2,80.7z"/>
	<polygon class="st1" points="138.2,102.4 119.2,102.4 137.7,76 137.7,68.9 105.3,68.9 105.3,78.2 123.4,78.2 104.8,104.6 
		104.8,111.7 138.2,111.7 	"/>
	<polygon class="st1" points="169.7,102.3 155.9,102.3 155.9,94.2 168.7,94.2 168.7,84.9 155.9,84.9 155.9,78.2 169.7,78.2 
		169.7,68.9 144.3,68.9 144.3,111.7 169.7,111.7 	"/>
</g>
</svg>
