<?xml version="1.0" encoding="utf-8"?>
<!-- Generator: Adobe Illustrator 19.2.0, SVG Export Plug-In . SVG Version: 6.00 Build 0)  -->
<svg version="1.1" id="icon" xmlns="http://www.w3.org/2000/svg" xmlns:xlink="http://www.w3.org/1999/xlink" x="0px" y="0px"
	 viewBox="0 0 512 512" style="enable-background:new 0 0 512 512;" xml:space="preserve">
<style type="text/css">
	.st0{fill:#18A1CB;}
	.st1{fill:#F8A724;}
</style>
<g>
	<path class="st0" d="M432.8,206.7c-14.2-27.7-42.8-45.4-74.1-45.4c-8.4,0-16.7,1.3-24.7,3.7c-26-29.1-62.7-45.7-102-45.7
		c-31.1,0-61.5,10.7-85.6,30.1c-1.5,1.2-3,2.5-4.4,3.7c-7.1-2.3-14.5-3.6-22.2-3.6c-16,0-31.6,5.5-44,15.5
		c-10.1,8.1-17.8,19-22.1,31.1c-24.1,2-43,22.3-43,46.8c0,10.6,3.5,20.4,9.5,28.3c-4.3,10.3-6.6,21.6-6.6,33.5
		c0,48.4,39.4,87.8,87.8,87.8h301.8c52.6,0,95.3-42.8,95.3-95.3C498.5,256,471.7,219.4,432.8,206.7z M30.7,243c0-14.9,12.1-27,27-27
		c0.8,0,1.6,0,2.5,0.1l8.7,0.8l2-8.5c5.3-22.9,25.4-38.8,48.9-38.8c2.1,0,4.1,0.1,6.1,0.4c7.2,0.9,14,3.3,20.1,7
		c4.9,3,9.3,6.8,13,11.4l4.7,5.8l6.9-2.8c3-1.2,6.2-1.9,9.4-1.9c9.8,0,18.7,5.8,22.7,14.8l1.9,4.3l4.6,1.3
		c13.2,3.6,22.5,15.7,22.5,29.5c0,16.9-13.7,30.6-30.6,30.6H57.7c-4.5,0-8.8-1.1-12.6-3.1c-6.2-3.3-11.1-9-13.2-15.8
		C31.1,248.5,30.7,245.8,30.7,243z"/>
	<g>
		
			<rect x="387.4" y="73.8" transform="matrix(0.7071 -0.7071 0.7071 0.7071 65.4733 325.585)" class="st1" width="76.6" height="20"/>
		<rect x="302.5" class="st1" width="20" height="76.6"/>
		<path class="st1" d="M435.4,186v2.1c2.1,2.8,4,5.7,5.7,8.8c6.5,2.4,12.6,5.5,18.4,9.1H512v-20H435.4z"/>
		<path class="st1" d="M232,107.4c0.4,0,0.9,0,1.3,0l1.1-1.1l-54.2-54.2l-14.1,14.1l42.9,42.9C216.6,108,224.3,107.4,232,107.4z"/>
		<path class="st1" d="M337.8,151.6c6.8-1.5,13.8-2.3,20.8-2.3c14.4,0,28.3,3.2,40.9,9.1c-14.9-32.2-47.5-54.6-85.2-54.6
			c-14.6,0-28.5,3.4-40.9,9.4C297.6,120.3,319.9,133.4,337.8,151.6z"/>
	</g>
</g>
</svg>
