<?xml version="1.0" encoding="utf-8"?>
<!-- Generator: Adobe Illustrator 19.2.0, SVG Export Plug-In . SVG Version: 6.00 Build 0)  -->
<svg version="1.1" id="icon" xmlns="http://www.w3.org/2000/svg" xmlns:xlink="http://www.w3.org/1999/xlink" x="0px" y="0px"
	 viewBox="0 0 512 512" style="enable-background:new 0 0 512 512;" xml:space="preserve">
<style type="text/css">
	.st0{fill:#F8A724;}
	.st1{fill:#BE6047;}
	.st2{fill:#18A1CB;}
</style>
<g>
	<g>
		<path class="st0" d="M314.3,349.9c-51.8,0-93.9-42.1-93.9-93.9c0-51.8,42.1-93.9,93.9-93.9c51.8,0,93.9,42.1,93.9,93.9
			C408.1,307.8,366,349.9,314.3,349.9z"/>
		
			<rect x="418.2" y="329.2" transform="matrix(0.7071 -0.7071 0.7071 0.7071 -134.4212 410.4453)" class="st0" width="20" height="76.6"/>
		
			<rect x="190.3" y="106.2" transform="matrix(0.7071 -0.7071 0.7071 0.7071 -43.5227 183.9611)" class="st0" width="20" height="76.6"/>
		
			<rect x="164.5" y="360" transform="matrix(0.7071 -0.7071 0.7071 0.7071 -202.2138 251.7541)" class="st0" width="76.6" height="20"/>
		
			<rect x="387.4" y="132" transform="matrix(0.7071 -0.7071 0.7071 0.7071 24.2704 342.6526)" class="st0" width="76.6" height="20"/>
		<rect x="306" y="377.1" class="st0" width="20" height="76.6"/>
		<rect x="302.5" y="58.3" class="st0" width="20" height="76.6"/>
		<rect x="116.5" y="247.8" class="st0" width="76.6" height="20"/>
		<rect x="435.4" y="244.2" class="st0" width="76.6" height="20"/>
	</g>
	<g>
		<path class="st1" d="M71.9,387.8V81.1h0c-0.1-3.6-3-6.5-6.6-6.5c-3.6,0-6.5,2.9-6.6,6.5h0v306.8c-12.3,3-21.4,14-21.4,27.2
			c0,15.4,12.5,28,28,28s28-12.5,28-28C93.3,401.8,84.1,390.8,71.9,387.8z"/>
		<path class="st2" d="M65.3,478.3C30.4,478.3,2,449.9,2,415c0-20.8,10.3-40.2,27.2-52V69.8c0-19.9,16.2-36.1,36.1-36.1
			s36.1,16.2,36.1,36.1V363c16.9,11.8,27.2,31.2,27.2,52C128.6,449.9,100.2,478.3,65.3,478.3z M65.3,53.7c-8.9,0-16.1,7.2-16.1,16.1
			v304.6l-5.1,2.9C30.5,384.9,22,399.4,22,415c0,23.9,19.4,43.3,43.3,43.3c23.9,0,43.3-19.4,43.3-43.3c0-15.6-8.5-30.1-22.1-37.7
			l-5.1-2.9V69.8C81.4,60.9,74.1,53.7,65.3,53.7z"/>
		<g>
			<rect x="76.3" y="129.9" class="st2" width="8.9" height="10"/>
			<rect x="76.3" y="157.8" class="st2" width="8.9" height="10"/>
			<rect x="76.3" y="185.8" class="st2" width="8.9" height="10"/>
			<rect x="76.3" y="213.8" class="st2" width="8.9" height="10"/>
			<rect x="76.3" y="241.7" class="st2" width="8.9" height="10"/>
			<rect x="76.3" y="269.7" class="st2" width="8.9" height="10"/>
			<rect x="76.3" y="297.7" class="st2" width="8.9" height="10"/>
			<rect x="76.3" y="325.7" class="st2" width="8.9" height="10"/>
		</g>
	</g>
</g>
</svg>
