<?xml version="1.0" encoding="utf-8"?>
<!-- Generator: Adobe Illustrator 19.2.0, SVG Export Plug-In . SVG Version: 6.00 Build 0)  -->
<svg version="1.1" id="icon" xmlns="http://www.w3.org/2000/svg" xmlns:xlink="http://www.w3.org/1999/xlink" x="0px" y="0px"
	 viewBox="0 0 512 512" style="enable-background:new 0 0 512 512;" xml:space="preserve">
<style type="text/css">
	.st0{fill:#18A1CB;}
	.st1{fill:#3A7BA5;}
</style>
<g>
	<path class="st0" d="M403.2,392.6H101.3c-48.4,0-87.8-39.4-87.8-87.8c0-48.3,39.3-87.7,87.6-87.8c7.9-26.4,23.8-50.1,45.4-67.4
		c24.1-19.4,54.5-30.1,85.6-30.1c39.2,0,76,16.6,102,45.7c8-2.5,16.2-3.7,24.7-3.7c31.4,0,60,17.7,74.1,45.4
		c38.9,12.7,65.7,49.3,65.7,90.6C498.5,349.9,455.7,392.6,403.2,392.6z M101.3,236.9c-37.4,0-67.8,30.4-67.8,67.8
		s30.4,67.8,67.8,67.8h301.8c41.5,0,75.3-33.8,75.3-75.3c0-33.9-22.8-63.8-55.5-72.7l-4.6-1.3l-1.9-4.3
		c-10.1-22.9-32.9-37.7-57.9-37.7c-8.3,0-16.4,1.6-24,4.7l-6.9,2.8l-4.7-5.8c-22.3-27.8-55.5-43.7-91-43.7
		c-54.6,0-101.3,37.1-113.6,90.2l-2,8.5l-8.7-0.8C105.5,237,103.4,236.9,101.3,236.9z"/>
	<g>
		<polygon class="st1" points="130.6,426.3 124.6,415.9 113.6,422.2 113.6,409.5 101.6,409.5 101.6,422.2 90.6,415.9 84.6,426.3 
			95.6,432.6 84.6,439 90.6,449.4 101.6,443 101.6,455.7 113.6,455.7 113.6,443 124.6,449.4 130.6,439 119.6,432.6 		"/>
		<polygon class="st1" points="229.6,426.3 223.6,415.9 212.5,422.2 212.5,409.5 200.5,409.5 200.5,422.2 189.5,415.9 183.5,426.3 
			194.5,432.6 183.5,439 189.5,449.4 200.5,443 200.5,455.7 212.5,455.7 212.5,443 223.6,449.4 229.6,439 218.5,432.6 		"/>
		<polygon class="st1" points="279,465.3 273,454.9 262,461.2 262,448.5 250,448.5 250,461.2 239,454.9 233,465.3 244,471.6 
			233,478 239,488.4 250,482 250,494.7 262,494.7 262,482 273,488.4 279,478 268,471.6 		"/>
		<polygon class="st1" points="180.1,465.3 174.1,454.9 163.1,461.2 163.1,448.5 151.1,448.5 151.1,461.2 140.1,454.9 134.1,465.3 
			145.1,471.6 134.1,478 140.1,488.4 151.1,482 151.1,494.7 163.1,494.7 163.1,482 174.1,488.4 180.1,478 169.1,471.6 		"/>
	</g>
</g>
</svg>
