<?xml version="1.0" encoding="utf-8"?>
<!-- Generator: Adobe Illustrator 19.2.0, SVG Export Plug-In . SVG Version: 6.00 Build 0)  -->
<svg version="1.1" id="icon" xmlns="http://www.w3.org/2000/svg" xmlns:xlink="http://www.w3.org/1999/xlink" x="0px" y="0px"
	 viewBox="0 0 512 512" style="enable-background:new 0 0 512 512;" xml:space="preserve">
<style type="text/css">
	.st0{fill:#996847;}
	.st1{fill:#3A7BA5;}
</style>
<g>
	<rect x="156.7" y="142.4" class="st0" width="159.1" height="20"/>
	<rect x="90.3" y="209.2" class="st0" width="159.1" height="20"/>
	<rect x="284.3" y="209.2" class="st0" width="159.1" height="20"/>
	<rect x="138.2" y="276" class="st0" width="159.1" height="20"/>
	<rect x="284.3" y="342.8" class="st0" width="159.1" height="20"/>
	<rect x="67" y="342.8" class="st0" width="159.1" height="20"/>
	<rect x="217.7" y="409.6" class="st0" width="159.1" height="20"/>
	<path class="st1" d="M33,68.9H18.1v42.8H32c7.1,0,12.7-1.9,16.6-5.8c3.9-3.9,5.9-9.4,5.9-16.5c0-6.6-1.9-11.7-5.6-15.2
		C45.1,70.7,39.8,68.9,33,68.9z M40,99.2c-1.6,2-4.2,3.1-7.7,3.1h-2.6v-24h3.4c3.2,0,5.5,0.9,7.1,2.8c1.6,1.9,2.3,4.8,2.3,8.7
		C42.5,94,41.7,97.1,40,99.2z"/>
	<path class="st1" d="M93.8,107.7c3.2-3.1,4.8-7.4,4.8-13V68.9H87V94c0,3.1-0.5,5.3-1.6,6.7c-1.1,1.4-2.8,2-5.1,2
		c-2.2,0-3.9-0.7-5-2.1c-1.1-1.4-1.7-3.6-1.7-6.6V68.9H61.9v26c0,5.6,1.6,9.9,4.7,12.9s7.6,4.5,13.5,4.5
		C86.1,112.3,90.6,110.8,93.8,107.7z"/>
	<path class="st1" d="M118.8,112.3c3.4,0,6.4-0.6,8.9-1.7c2.5-1.1,4.5-2.7,5.8-4.8c1.3-2.1,2-4.4,2-7.1c0-2.9-0.7-5.3-2.2-7.2
		s-4-3.7-7.7-5.3c-3.8-1.8-6.2-3-7.1-3.6c-0.9-0.7-1.3-1.4-1.3-2.3c0-0.8,0.3-1.4,1-2c0.7-0.5,1.8-0.8,3.3-0.8
		c2.9,0,6.4,0.9,10.4,2.8l3.5-8.9c-4.6-2.1-9.1-3.1-13.6-3.1c-5,0-9,1.1-11.8,3.3c-2.9,2.2-4.3,5.3-4.3,9.2c0,2.1,0.3,3.9,1,5.5
		c0.7,1.5,1.7,2.9,3.1,4.1c1.4,1.2,3.5,2.4,6.3,3.7c3.1,1.4,5,2.3,5.7,2.8c0.7,0.4,1.2,0.9,1.6,1.3s0.5,1,0.5,1.5
		c0,0.9-0.4,1.7-1.2,2.3c-0.8,0.6-2.1,0.9-3.8,0.9c-2,0-4.2-0.3-6.6-1c-2.4-0.6-4.7-1.5-6.9-2.7v10.3c2.1,1,4.1,1.7,6,2.1
		S115.9,112.3,118.8,112.3z"/>
	<polygon class="st1" points="149.5,111.7 161.1,111.7 161.1,78.4 171.5,78.4 171.5,68.9 139.1,68.9 139.1,78.4 149.5,78.4 	"/>
</g>
</svg>
