<?xml version="1.0" encoding="utf-8"?>
<!-- Generator: Adobe Illustrator 19.2.0, SVG Export Plug-In . SVG Version: 6.00 Build 0)  -->
<svg version="1.1" id="icon" xmlns="http://www.w3.org/2000/svg" xmlns:xlink="http://www.w3.org/1999/xlink" x="0px" y="0px"
	 viewBox="0 0 512 512" style="enable-background:new 0 0 512 512;" xml:space="preserve">
<style type="text/css">
	.st0{fill:#EEC646;}
	.st1{fill:#FFFFFF;}
	.st2{fill:#FFDD7A;}
</style>
<g>
	<path class="st0" d="M376.5,1.6H256v508.7h174c14.7,0,26.8-12,26.8-26.8V318.9c0-6-2-11.9-5.9-16.7L409.2,250
		c-3.9-4.8-5.9-10.7-5.9-16.7V28.4C403.3,13.7,391.2,1.6,376.5,1.6z"/>
	<path class="st1" d="M133.1,44.6v421.7c0,1.1,0.9,2,2,2h226c1.1,0,2-0.9,2-2V44.6c0-1.1-0.9-2-2-2h-226
		C134,42.6,133.1,43.5,133.1,44.6z"/>
	<path class="st2" d="M291.5,1.6H82.2c-14.9,0-27,12-27,26.8v455.2c0,14.7,12.2,26.8,27,26.8h209.3c17.3,0,31.5-14.7,31.5-32.8V34.4
		C322.9,16.4,308.8,1.6,291.5,1.6z"/>
</g>
</svg>
