<?xml version="1.0" encoding="utf-8"?>
<!-- Generator: Adobe Illustrator 19.2.0, SVG Export Plug-In . SVG Version: 6.00 Build 0)  -->
<svg version="1.1" id="icon" xmlns="http://www.w3.org/2000/svg" xmlns:xlink="http://www.w3.org/1999/xlink" x="0px" y="0px"
	 viewBox="0 0 512 512" style="enable-background:new 0 0 512 512;" xml:space="preserve">
<style type="text/css">
	.st0{fill:#EEC646;}
	.st1{fill:#FFFFFF;}
	.st2{fill:#FFDD7A;}
</style>
<g>
	<path class="st0" d="M510.4,135.5V256H1.6V82c0-14.7,12-26.8,26.8-26.8h164.7c6,0,11.9,2,16.7,5.9l52.2,41.8
		c4.8,3.9,10.7,5.9,16.7,5.9h204.8C498.3,108.7,510.4,120.8,510.4,135.5z"/>
	<path class="st1" d="M467.4,378.9H45.7c-1.1,0-2-0.9-2-2v-226c0-1.1,0.9-2,2-2h421.7c1.1,0,2,0.9,2,2v226
		C469.4,378,468.5,378.9,467.4,378.9z"/>
	<path class="st2" d="M510.4,220.5v209.3c0,14.9-12,27-26.8,27H28.4c-14.7,0-26.8-12.2-26.8-27V220.5c0-17.3,14.7-31.5,32.8-31.5
		h443.1C495.6,189.1,510.4,203.2,510.4,220.5z"/>
</g>
</svg>
