<?xml version="1.0" encoding="utf-8"?>
<!-- Generator: Adobe Illustrator 19.2.0, SVG Export Plug-In . SVG Version: 6.00 Build 0)  -->
<svg version="1.1" id="icon" xmlns="http://www.w3.org/2000/svg" xmlns:xlink="http://www.w3.org/1999/xlink" x="0px" y="0px"
	 viewBox="0 0 512 512" style="enable-background:new 0 0 512 512;" xml:space="preserve">
<style type="text/css">
	.st0{fill:#88C5F7;}
	.st1{fill:#476977;}
</style>
<g>
	<path class="st0" d="M400.1,323.8c2.3,0,4.3-0.8,6-2.5c1.7-1.7,2.5-3.7,2.5-6V128.8c0-2.3-0.8-4.3-2.5-6c-1.7-1.7-3.7-2.5-6-2.5
		H111.9c-2.3,0-4.3,0.8-6,2.5c-1.7,1.7-2.5,3.7-2.5,6v186.5c0,2.3,0.8,4.3,2.5,6c1.7,1.7,3.7,2.5,6,2.5H400.1z"/>
	<path class="st0" d="M277.2,400.1c2.8,0,4.2-1.4,4.2-4.2c0-2.8-1.4-4.2-4.2-4.2h-42.4c-2.8,0-4.2,1.4-4.2,4.2
		c0,2.8,1.4,4.2,4.2,4.2H277.2z"/>
	<path class="st1" d="M111.9,357.7c-11.7,0-21.6-4.2-29.9-12.5S69.5,327,69.5,315.4V128.8c0-11.7,4.2-21.6,12.5-29.9
		s18.3-12.5,29.9-12.5h288.3c11.7,0,21.6,4.2,29.9,12.5c8.3,8.3,12.5,18.3,12.5,29.9v186.5c0,11.7-4.2,21.6-12.5,29.9
		c-8.3,8.3-18.3,12.5-29.9,12.5H111.9z M103.4,128.8v186.5c0,2.3,0.8,4.3,2.5,6c1.7,1.7,3.7,2.5,6,2.5h288.3c2.3,0,4.3-0.8,6-2.5
		c1.7-1.7,2.5-3.7,2.5-6V128.8c0-2.3-0.8-4.3-2.5-6s-3.7-2.5-6-2.5H111.9c-2.3,0-4.3,0.8-6,2.5C104.2,124.5,103.4,126.5,103.4,128.8
		z M468,374.7h42.4v25.4c0,7.1-4.2,13.1-12.5,18s-18.3,7.4-29.9,7.4H44c-11.7,0-21.6-2.5-29.9-7.4s-12.5-11-12.5-18v-25.4H468z
		 M277.2,400.1c2.8,0,4.2-1.4,4.2-4.2c0-2.8-1.4-4.2-4.2-4.2h-42.4c-2.8,0-4.2,1.4-4.2,4.2c0,2.8,1.4,4.2,4.2,4.2H277.2z"/>
</g>
</svg>
