<?xml version="1.0" encoding="utf-8"?>
<!-- Generator: Adobe Illustrator 19.2.0, SVG Export Plug-In . SVG Version: 6.00 Build 0)  -->
<svg version="1.1" id="icon" xmlns="http://www.w3.org/2000/svg" xmlns:xlink="http://www.w3.org/1999/xlink" x="0px" y="0px"
	 viewBox="0 0 512 512" style="enable-background:new 0 0 512 512;" xml:space="preserve">
<style type="text/css">
	.st0{fill:#88C5F7;}
	.st1{fill:#476977;}
</style>
<g>
	<path class="st0" d="M44,366.9H468c2.3,0,4.3-0.8,6-2.5c1.7-1.7,2.5-3.7,2.5-6V77.9c0-2.3-0.8-4.3-2.5-6c-1.7-1.7-3.7-2.5-6-2.5H44
		c-2.3,0-4.3,0.8-6,2.5c-1.7,1.7-2.5,3.7-2.5,6v280.4c0,2.3,0.8,4.3,2.5,6C39.8,366,41.7,366.9,44,366.9z"/>
	<path class="st1" d="M476.4,358.4V77.9c0-2.3-0.8-4.3-2.5-6c-1.7-1.7-3.7-2.5-6-2.5H44c-2.3,0-4.3,0.8-6,2.5
		c-1.7,1.7-2.5,3.7-2.5,6v280.4c0,2.3,0.8,4.3,2.5,6c1.7,1.7,3.7,2.5,6,2.5H468c2.3,0,4.3-0.8,6-2.5
		C475.6,362.7,476.4,360.7,476.4,358.4z M510.4,77.9v288.3c0,11.7-4.2,21.6-12.5,29.9c-8.3,8.3-18.3,12.5-29.9,12.5H323.8
		c0,6.5,1.4,13.4,4.2,20.5s5.7,13.4,8.5,18.8s4.2,9.2,4.2,11.5c0,4.6-1.7,8.6-5,11.9c-3.4,3.4-7.3,5-11.9,5H188.2
		c-4.6,0-8.6-1.7-11.9-5c-3.4-3.4-5-7.3-5-11.9c0-2.5,1.4-6.4,4.2-11.7c2.8-5.3,5.7-11.5,8.5-18.5c2.8-7.1,4.2-14,4.2-20.7H44
		c-11.7,0-21.6-4.2-29.9-12.5c-8.3-8.3-12.5-18.3-12.5-29.9V77.9c0-11.7,4.2-21.6,12.5-29.9S32.4,35.6,44,35.6H468
		c11.7,0,21.6,4.2,29.9,12.5S510.4,66.3,510.4,77.9z"/>
</g>
</svg>
