<?xml version="1.0" encoding="utf-8"?>
<!-- Generator: Adobe Illustrator 19.2.0, SVG Export Plug-In . SVG Version: 6.00 Build 0)  -->
<svg version="1.1" id="icon" xmlns="http://www.w3.org/2000/svg" xmlns:xlink="http://www.w3.org/1999/xlink" x="0px" y="0px"
	 viewBox="0 0 512 512" style="enable-background:new 0 0 512 512;" xml:space="preserve">
<style type="text/css">
	.st0{fill:#B9BFC4;}
	.st1{fill:#E2E4E7;}
	.st2{fill:#878FAA;}
	.st3{fill:#FFFFFF;}
</style>
<g>
	<path class="st0" d="M114,467.9L84.2,118.5h343.7L398,467.9c-2.3,22.9-21.8,40.1-45.8,40.1H159.8C135.7,508,116.2,490.8,114,467.9z
		"/>
	<path class="st0" d="M336.2,95.6H303V46.4c0-3.4-2.3-5.7-5.7-5.7h-82.5c-3.4,0-5.7,2.3-5.7,5.7v49.3h-33.2V46.4
		C175.8,23.5,193,4,214.8,4h82.5c21.8,0,38.9,19.5,38.9,42.4V95.6z"/>
	<path class="st1" d="M450.7,141.4H61.3v-30.9c0-20.6,17.2-37.8,37.8-37.8h313.9c20.6,0,37.8,17.2,37.8,37.8L450.7,141.4z"/>
	<path class="st2" d="M174.7,427.8L174.7,427.8c-9.2,0-16-6.9-17.2-16l-14.9-194.7c-1.1-10.3,6.9-18.3,17.2-18.3l0,0
		c9.2,0,16,6.9,17.2,16l14.9,194.7C191.8,419.8,185,427.8,174.7,427.8z"/>
	<path class="st2" d="M256,427.8L256,427.8c-9.2,0-17.2-8-17.2-17.2V215.9c0-9.2,8-17.2,17.2-17.2l0,0c9.2,0,17.2,8,17.2,17.2v194.7
		C273.2,419.8,265.2,427.8,256,427.8z"/>
	<path class="st2" d="M338.5,427.8L338.5,427.8c-10.3,0-18.3-8-17.2-18.3l14.9-194.7c1.1-9.2,8-16,17.2-16l0,0
		c10.3,0,18.3,8,17.2,18.3l-14.9,194.7C355.7,421,347.6,427.8,338.5,427.8z"/>
	<polygon class="st3" points="294,141.4 314.7,195.7 425.9,141.4 	"/>
</g>
</svg>
