<?xml version="1.0" encoding="utf-8"?>
<!-- Generator: Adobe Illustrator 19.2.0, SVG Export Plug-In . SVG Version: 6.00 Build 0)  -->
<svg version="1.1" id="icon" xmlns="http://www.w3.org/2000/svg" xmlns:xlink="http://www.w3.org/1999/xlink" x="0px" y="0px"
	 viewBox="0 0 512 512" style="enable-background:new 0 0 512 512;" xml:space="preserve">
<style type="text/css">
	.st0{fill:#3A7BA5;}
</style>
<g>
	<polygon class="st0" points="124.6,259.7 113.6,266.1 113.6,253.4 101.6,253.4 101.6,266.1 90.6,259.7 84.6,270.1 95.6,276.5 
		84.6,282.9 90.6,293.3 101.6,286.9 101.6,299.6 113.6,299.6 113.6,286.9 124.6,293.3 130.6,282.9 119.6,276.5 130.6,270.1 	"/>
	<polygon class="st0" points="223.6,259.7 212.5,266.1 212.5,253.4 200.5,253.4 200.5,266.1 189.5,259.7 183.5,270.1 194.5,276.5 
		183.5,282.9 189.5,293.3 200.5,286.9 200.5,299.6 212.5,299.6 212.5,286.9 223.6,293.3 229.6,282.9 218.5,276.5 229.6,270.1 	"/>
	<polygon class="st0" points="322.5,259.7 311.5,266.1 311.5,253.4 299.5,253.4 299.5,266.1 288.4,259.7 282.4,270.1 293.5,276.5 
		282.4,282.9 288.4,293.3 299.5,286.9 299.5,299.6 311.5,299.6 311.5,286.9 322.5,293.3 328.5,282.9 317.5,276.5 328.5,270.1 	"/>
	<polygon class="st0" points="421.4,259.7 410.4,266.1 410.4,253.4 398.4,253.4 398.4,266.1 387.4,259.7 381.4,270.1 392.4,276.5 
		381.4,282.9 387.4,293.3 398.4,286.9 398.4,299.6 410.4,299.6 410.4,286.9 421.4,293.3 427.4,282.9 416.4,276.5 427.4,270.1 	"/>
	<polygon class="st0" points="371.9,298.7 360.9,305.1 360.9,292.4 348.9,292.4 348.9,305.1 337.9,298.7 331.9,309.1 342.9,315.5 
		331.9,321.9 337.9,332.3 348.9,325.9 348.9,338.6 360.9,338.6 360.9,325.9 371.9,332.3 377.9,321.9 366.9,315.5 377.9,309.1 	"/>
	<polygon class="st0" points="273,298.7 262,305.1 262,292.4 250,292.4 250,305.1 239,298.7 233,309.1 244,315.5 233,321.9 
		239,332.3 250,325.9 250,338.6 262,338.6 262,325.9 273,332.3 279,321.9 268,315.5 279,309.1 	"/>
	<polygon class="st0" points="174.1,298.7 163.1,305.1 163.1,292.4 151.1,292.4 151.1,305.1 140.1,298.7 134.1,309.1 145.1,315.5 
		134.1,321.9 140.1,332.3 151.1,325.9 151.1,338.6 163.1,338.6 163.1,325.9 174.1,332.3 180.1,321.9 169.1,315.5 180.1,309.1 	"/>
	<polygon class="st0" points="124.6,179.7 113.6,186.1 113.6,173.4 101.6,173.4 101.6,186.1 90.6,179.7 84.6,190.1 95.6,196.5 
		84.6,202.9 90.6,213.3 101.6,206.9 101.6,219.6 113.6,219.6 113.6,206.9 124.6,213.3 130.6,202.9 119.6,196.5 130.6,190.1 	"/>
	<polygon class="st0" points="223.6,179.7 212.5,186.1 212.5,173.4 200.5,173.4 200.5,186.1 189.5,179.7 183.5,190.1 194.5,196.5 
		183.5,202.9 189.5,213.3 200.5,206.9 200.5,219.6 212.5,219.6 212.5,206.9 223.6,213.3 229.6,202.9 218.5,196.5 229.6,190.1 	"/>
	<polygon class="st0" points="322.5,179.7 311.5,186.1 311.5,173.4 299.5,173.4 299.5,186.1 288.4,179.7 282.4,190.1 293.5,196.5 
		282.4,202.9 288.4,213.3 299.5,206.9 299.5,219.6 311.5,219.6 311.5,206.9 322.5,213.3 328.5,202.9 317.5,196.5 328.5,190.1 	"/>
	<polygon class="st0" points="427.4,190.1 421.4,179.7 410.4,186.1 410.4,173.4 398.4,173.4 398.4,186.1 387.4,179.7 381.4,190.1 
		392.4,196.5 381.4,202.9 387.4,213.3 398.4,206.9 398.4,219.6 410.4,219.6 410.4,206.9 421.4,213.3 427.4,202.9 416.4,196.5 	"/>
	<polygon class="st0" points="371.9,218.7 360.9,225.1 360.9,212.4 348.9,212.4 348.9,225.1 337.9,218.7 331.9,229.1 342.9,235.5 
		331.9,241.9 337.9,252.3 348.9,245.9 348.9,258.6 360.9,258.6 360.9,245.9 371.9,252.3 377.9,241.9 366.9,235.5 377.9,229.1 	"/>
	<polygon class="st0" points="273,218.7 262,225.1 262,212.4 250,212.4 250,225.1 239,218.7 233,229.1 244,235.5 233,241.9 
		239,252.3 250,245.9 250,258.6 262,258.6 262,245.9 273,252.3 279,241.9 268,235.5 279,229.1 	"/>
	<polygon class="st0" points="174.1,218.7 163.1,225.1 163.1,212.4 151.1,212.4 151.1,225.1 140.1,218.7 134.1,229.1 145.1,235.5 
		134.1,241.9 140.1,252.3 151.1,245.9 151.1,258.6 163.1,258.6 163.1,245.9 174.1,252.3 180.1,241.9 169.1,235.5 180.1,229.1 	"/>
</g>
</svg>
