<?xml version="1.0" encoding="utf-8"?>
<!-- Generator: Adobe Illustrator 19.2.0, SVG Export Plug-In . SVG Version: 6.00 Build 0)  -->
<svg version="1.1" id="icon" xmlns="http://www.w3.org/2000/svg" xmlns:xlink="http://www.w3.org/1999/xlink" x="0px" y="0px"
	 viewBox="0 0 512 512" style="enable-background:new 0 0 512 512;" xml:space="preserve">
<style type="text/css">
	.st0{fill:#18A1CB;}
	.st1{fill:#F8A724;}
</style>
<g>
	<path class="st0" d="M403.2,392.6H101.3c-48.4,0-87.8-39.4-87.8-87.8c0-48.3,39.3-87.7,87.6-87.8c7.9-26.4,23.8-50.1,45.4-67.4
		c24.1-19.4,54.5-30.1,85.6-30.1c39.2,0,76,16.6,102,45.7c8-2.5,16.2-3.7,24.7-3.7c31.4,0,60,17.7,74.1,45.4
		c38.9,12.7,65.7,49.3,65.7,90.6C498.5,349.9,455.7,392.6,403.2,392.6z"/>
	<path class="st1" d="M345.7,150.2c4.3-0.6,8.6-0.9,12.9-0.9c34.3,0,65.5,18.1,82.5,47.6c4.5,1.7,8.9,3.7,13.2,6
		c4.2-10.7,6.6-22.3,6.6-34.4c0-51.8-42.1-93.9-93.9-93.9c-18.6,0-36.5,5.4-52,15.7l-12.5,8.3L315,107
		C330.5,117.2,341.3,132.7,345.7,150.2z"/>
</g>
</svg>
