<?xml version="1.0" encoding="utf-8"?>
<!-- Generator: Adobe Illustrator 19.2.0, SVG Export Plug-In . SVG Version: 6.00 Build 0)  -->
<svg version="1.1" id="icon" xmlns="http://www.w3.org/2000/svg" xmlns:xlink="http://www.w3.org/1999/xlink" x="0px" y="0px"
	 viewBox="0 0 512 512" style="enable-background:new 0 0 512 512;" xml:space="preserve">
<style type="text/css">
	.st0{fill:#18A1CB;}
	.st1{fill:#3A7BA5;}
	.st2{fill:#F8A724;}
</style>
<g>
	<path class="st0" d="M403.2,392.6H101.3c-48.4,0-87.8-39.4-87.8-87.8c0-48.3,39.3-87.7,87.6-87.8c7.9-26.4,23.8-50.1,45.4-67.4
		c24.1-19.4,54.5-30.1,85.6-30.1c39.2,0,76,16.6,102,45.7c8-2.5,16.2-3.7,24.7-3.7c31.4,0,60,17.7,74.1,45.4
		c38.9,12.7,65.7,49.3,65.7,90.6C498.5,349.9,455.7,392.6,403.2,392.6z"/>
	<g>
		<path class="st1" d="M92.2,440.3c0,8.5,6.9,15.4,15.4,15.4s15.4-6.9,15.4-15.4c0-8.5-15.4-30.8-15.4-30.8S92.2,431.8,92.2,440.3z"
			/>
		<path class="st1" d="M389,440.3c0,8.5,6.9,15.4,15.4,15.4c8.5,0,15.4-6.9,15.4-15.4c0-8.5-15.4-30.8-15.4-30.8
			S389,431.8,389,440.3z"/>
		<path class="st1" d="M141.7,479.3c0,8.5,6.9,15.4,15.4,15.4c8.5,0,15.4-6.9,15.4-15.4c0-8.5-15.4-30.8-15.4-30.8
			S141.7,470.8,141.7,479.3z"/>
		<path class="st1" d="M339.5,479.3c0,8.5,6.9,15.4,15.4,15.4c8.5,0,15.4-6.9,15.4-15.4c0-8.5-15.4-30.8-15.4-30.8
			S339.5,470.8,339.5,479.3z"/>
		<polygon class="st2" points="252.9,409.5 281.4,409.5 252.9,437.3 281.4,437.3 236.7,499.7 255.7,445.5 230.6,445.5 		"/>
	</g>
	<g>
		
			<rect x="387.4" y="73.8" transform="matrix(0.7071 -0.7071 0.7071 0.7071 65.4732 325.585)" class="st2" width="76.6" height="20"/>
		<rect x="302.5" y="0" class="st2" width="20" height="76.6"/>
		<path class="st2" d="M435.4,186v2.1c2.1,2.8,4,5.7,5.7,8.8c6.5,2.4,12.6,5.5,18.4,9.1H512v-20H435.4z"/>
		<path class="st2" d="M232,107.4c0.4,0,0.9,0,1.3,0l1.1-1.1l-54.2-54.2l-14.1,14.1l42.9,42.9C216.6,108,224.3,107.4,232,107.4z"/>
		<path class="st2" d="M337.8,151.6c6.8-1.5,13.8-2.3,20.8-2.3c14.4,0,28.3,3.2,40.9,9.1c-14.9-32.2-47.5-54.6-85.2-54.6
			c-14.6,0-28.5,3.4-40.9,9.4C297.6,120.3,319.9,133.4,337.8,151.6z"/>
	</g>
</g>
</svg>
