<?xml version="1.0" encoding="utf-8"?>
<!-- Generator: Adobe Illustrator 19.2.0, SVG Export Plug-In . SVG Version: 6.00 Build 0)  -->
<svg version="1.1" id="icon" xmlns="http://www.w3.org/2000/svg" xmlns:xlink="http://www.w3.org/1999/xlink" x="0px" y="0px"
	 viewBox="0 0 512 512" style="enable-background:new 0 0 512 512;" xml:space="preserve">
<style type="text/css">
	.st0{fill:#18A1CB;}
	.st1{fill:#3A7BA5;}
</style>
<g>
	<path class="st0" d="M432.8,206.7c-14.2-27.7-42.8-45.4-74.1-45.4c-8.4,0-16.7,1.3-24.7,3.7c-26-29.1-62.7-45.7-102-45.7
		c-31.1,0-61.5,10.7-85.6,30.1c-21.6,17.4-37.5,41.1-45.4,67.4c-48.3,0.2-87.6,39.5-87.6,87.8c0,48.4,39.4,87.8,87.8,87.8h301.8
		c52.6,0,95.3-42.8,95.3-95.3C498.5,256,471.7,219.4,432.8,206.7z"/>
	<polygon class="st1" points="124.6,415.9 113.6,422.2 113.6,409.5 101.6,409.5 101.6,422.2 90.6,415.9 84.6,426.3 95.6,432.6 
		84.6,439 90.6,449.4 101.6,443 101.6,455.7 113.6,455.7 113.6,443 124.6,449.4 130.6,439 119.6,432.6 130.6,426.3 	"/>
	<polygon class="st1" points="223.6,415.9 212.5,422.2 212.5,409.5 200.5,409.5 200.5,422.2 189.5,415.9 183.5,426.3 194.5,432.6 
		183.5,439 189.5,449.4 200.5,443 200.5,455.7 212.5,455.7 212.5,443 223.6,449.4 229.6,439 218.5,432.6 229.6,426.3 	"/>
	<polygon class="st1" points="322.5,415.9 311.5,422.2 311.5,409.5 299.5,409.5 299.5,422.2 288.4,415.9 282.4,426.3 293.5,432.6 
		282.4,439 288.4,449.4 299.5,443 299.5,455.7 311.5,455.7 311.5,443 322.5,449.4 328.5,439 317.5,432.6 328.5,426.3 	"/>
	<polygon class="st1" points="421.4,415.9 410.4,422.2 410.4,409.5 398.4,409.5 398.4,422.2 387.4,415.9 381.4,426.3 392.4,432.6 
		381.4,439 387.4,449.4 398.4,443 398.4,455.7 410.4,455.7 410.4,443 421.4,449.4 427.4,439 416.4,432.6 427.4,426.3 	"/>
	<path class="st1" d="M141.7,479.3c0,8.5,6.9,15.4,15.4,15.4s15.4-6.9,15.4-15.4s-15.4-30.8-15.4-30.8S141.7,470.8,141.7,479.3z"/>
	<path class="st1" d="M240.6,479.3c0,8.5,6.9,15.4,15.4,15.4s15.4-6.9,15.4-15.4S256,448.5,256,448.5S240.6,470.8,240.6,479.3z"/>
	<path class="st1" d="M339.5,479.3c0,8.5,6.9,15.4,15.4,15.4s15.4-6.9,15.4-15.4s-15.4-30.8-15.4-30.8S339.5,470.8,339.5,479.3z"/>
	<g>
		<polygon class="st0" points="46.4,159.9 66,105.7 85.2,187.2 99.7,115.7 117.6,151.1 132.5,80.1 37.5,45.1 		"/>
		<polygon class="st1" points="135,68.2 36.5,31.9 17.6,25 13.5,36.2 37.5,45.1 132.5,80.1 156.3,88.9 160.4,77.6 		"/>
	</g>
</g>
</svg>
