<?xml version="1.0" encoding="utf-8"?>
<!-- Generator: Adobe Illustrator 19.2.0, SVG Export Plug-In . SVG Version: 6.00 Build 0)  -->
<svg version="1.1" id="icon" xmlns="http://www.w3.org/2000/svg" xmlns:xlink="http://www.w3.org/1999/xlink" x="0px" y="0px"
	 viewBox="0 0 512 512" style="enable-background:new 0 0 512 512;" xml:space="preserve">
<style type="text/css">
	.st0{fill:#FFFFFF;}
</style>
<g>
	<path class="st0" d="M314.3,123.9c28.6,0,53.5,16.4,65.7,40.3c9.2,2.4,17.8,6.4,25.5,11.7c-9.9-41.2-47.1-71.9-91.3-71.9
		c-20.7,0-39.9,6.7-55.4,18.1c9,1.8,17.7,4.4,26.1,8C293.9,126,303.8,123.9,314.3,123.9z"/>
	<path class="st0" d="M234.5,106.3l-54.2-54.2l-14.1,14.1l53.7,53.7c0.4,0,0.7-0.1,1.1-0.1L234.5,106.3z"/>
	
		<rect x="387.4" y="73.8" transform="matrix(0.7071 -0.7071 0.7071 0.7071 65.4733 325.585)" class="st0" width="76.6" height="20"/>
	<rect x="302.5" class="st0" width="20" height="76.6"/>
	<rect x="435.4" y="186" class="st0" width="76.6" height="20"/>
	<path class="st0" d="M432.8,206.7c-14.2-27.7-42.8-45.4-74.1-45.4c-8.4,0-16.7,1.3-24.7,3.7c-26-29.1-62.7-45.7-102-45.7
		c-31.1,0-61.5,10.7-85.6,30.1c-1.5,1.2-3,2.5-4.4,3.7c-7.1-2.3-14.5-3.6-22.2-3.6c-16,0-31.6,5.5-44,15.5
		c-10.1,8.1-17.8,19-22.1,31.1c-24.1,2-43,22.3-43,46.8c0,10.6,3.5,20.4,9.5,28.3c-4.3,10.3-6.6,21.6-6.6,33.5
		c0,48.4,39.4,87.8,87.8,87.8h301.8c52.6,0,95.3-42.8,95.3-95.3C498.5,256,471.7,219.4,432.8,206.7z M30.7,243c0-14.9,12.1-27,27-27
		c0.8,0,1.6,0,2.5,0.1l8.7,0.8l2-8.5c5.3-22.9,25.4-38.8,48.9-38.8c2.1,0,4.1,0.1,6.1,0.4c7.2,0.9,14,3.3,20.1,7
		c4.9,3,9.3,6.8,13,11.4l4.7,5.8l6.9-2.8c3-1.2,6.2-1.9,9.4-1.9c9.8,0,18.7,5.8,22.7,14.8l1.9,4.3l4.6,1.3
		c13.2,3.6,22.5,15.7,22.5,29.5c0,16.9-13.7,30.6-30.6,30.6H57.7c-4.5,0-8.8-1.1-12.6-3.1c-6.2-3.3-11.1-9-13.2-15.8
		C31.1,248.5,30.7,245.8,30.7,243z M403.2,372.6H101.3c-37.4,0-67.8-30.4-67.8-67.8c0-6.9,1-13.6,3-19.8c6.4,3.2,13.6,5.1,21.2,5.1
		h143.5c27.9,0,50.6-22.7,50.6-50.6c0-21.2-13.3-40-32.8-47.4c-7.9-13.8-22.7-22.5-38.9-22.5c-3.4,0-6.8,0.4-10,1.1
		c-2.7-2.8-5.7-5.3-8.8-7.6c19.7-15,44.3-23.8,70.8-23.8c35.5,0,68.7,15.9,91,43.7l4.7,5.8l6.9-2.8c7.6-3.1,15.7-4.7,24-4.7
		c25,0,47.7,14.8,57.9,37.7l1.9,4.3l4.6,1.3c32.7,8.9,55.5,38.8,55.5,72.7C478.5,338.8,444.7,372.6,403.2,372.6z"/>
</g>
</svg>
