<?xml version="1.0" encoding="utf-8"?>
<!-- Generator: Adobe Illustrator 19.2.0, SVG Export Plug-In . SVG Version: 6.00 Build 0)  -->
<svg version="1.1" id="icon" xmlns="http://www.w3.org/2000/svg" xmlns:xlink="http://www.w3.org/1999/xlink" x="0px" y="0px"
	 viewBox="0 0 512 512" style="enable-background:new 0 0 512 512;" xml:space="preserve">
<style type="text/css">
	.st0{fill:#FFFFFF;}
</style>
<g>
	<path class="st0" d="M135,68.2L36.5,31.9l-18.9-7l-4.2,11.3l24,8.9l8.9,114.8L66,105.7l19.2,81.6l14.5-71.5l18,35.3l14.9-71
		l23.7,8.8l4.2-11.3L135,68.2z M112.9,115.2L94.8,79.6l-10.4,51.5L68.5,63.6l-14.4,39.8l-4.2-53.8l71.2,26.3L112.9,115.2z"/>
</g>
<g>
	<path class="st0" d="M92.2,204.2c0,8.5,6.9,15.4,15.4,15.4s15.4-6.9,15.4-15.4s-15.4-30.8-15.4-30.8S92.2,195.7,92.2,204.2z"/>
	<path class="st0" d="M191.1,204.2c0,8.5,6.9,15.4,15.4,15.4c8.5,0,15.4-6.9,15.4-15.4s-15.4-30.8-15.4-30.8
		S191.1,195.7,191.1,204.2z"/>
	<path class="st0" d="M290,204.2c0,8.5,6.9,15.4,15.4,15.4s15.4-6.9,15.4-15.4s-15.4-30.8-15.4-30.8S290,195.7,290,204.2z"/>
	<path class="st0" d="M389,204.2c0,8.5,6.9,15.4,15.4,15.4c8.5,0,15.4-6.9,15.4-15.4s-15.4-30.8-15.4-30.8S389,195.7,389,204.2z"/>
	<path class="st0" d="M141.7,243.2c0,8.5,6.9,15.4,15.4,15.4c8.5,0,15.4-6.9,15.4-15.4s-15.4-30.8-15.4-30.8
		S141.7,234.7,141.7,243.2z"/>
	<path class="st0" d="M240.6,243.2c0,8.5,6.9,15.4,15.4,15.4s15.4-6.9,15.4-15.4S256,212.4,256,212.4S240.6,234.7,240.6,243.2z"/>
	<path class="st0" d="M339.5,243.2c0,8.5,6.9,15.4,15.4,15.4c8.5,0,15.4-6.9,15.4-15.4s-15.4-30.8-15.4-30.8
		S339.5,234.7,339.5,243.2z"/>
	<path class="st0" d="M92.2,284.2c0,8.5,6.9,15.4,15.4,15.4s15.4-6.9,15.4-15.4c0-8.5-15.4-30.8-15.4-30.8S92.2,275.7,92.2,284.2z"
		/>
	<path class="st0" d="M191.1,284.2c0,8.5,6.9,15.4,15.4,15.4c8.5,0,15.4-6.9,15.4-15.4c0-8.5-15.4-30.8-15.4-30.8
		S191.1,275.7,191.1,284.2z"/>
	<path class="st0" d="M290,284.2c0,8.5,6.9,15.4,15.4,15.4s15.4-6.9,15.4-15.4c0-8.5-15.4-30.8-15.4-30.8S290,275.7,290,284.2z"/>
	<path class="st0" d="M389,284.2c0,8.5,6.9,15.4,15.4,15.4c8.5,0,15.4-6.9,15.4-15.4c0-8.5-15.4-30.8-15.4-30.8S389,275.7,389,284.2
		z"/>
	<path class="st0" d="M141.7,323.2c0,8.5,6.9,15.4,15.4,15.4c8.5,0,15.4-6.9,15.4-15.4c0-8.5-15.4-30.8-15.4-30.8
		S141.7,314.7,141.7,323.2z"/>
	<path class="st0" d="M240.6,323.2c0,8.5,6.9,15.4,15.4,15.4s15.4-6.9,15.4-15.4c0-8.5-15.4-30.8-15.4-30.8S240.6,314.7,240.6,323.2
		z"/>
	<path class="st0" d="M339.5,323.2c0,8.5,6.9,15.4,15.4,15.4c8.5,0,15.4-6.9,15.4-15.4c0-8.5-15.4-30.8-15.4-30.8
		S339.5,314.7,339.5,323.2z"/>
</g>
</svg>
