<?xml version="1.0" encoding="utf-8"?>
<!-- Generator: Adobe Illustrator 19.2.0, SVG Export Plug-In . SVG Version: 6.00 Build 0)  -->
<svg version="1.1" id="icon" xmlns="http://www.w3.org/2000/svg" xmlns:xlink="http://www.w3.org/1999/xlink" x="0px" y="0px"
	 viewBox="0 0 512 512" style="enable-background:new 0 0 512 512;" xml:space="preserve">
<style type="text/css">
	.st0{fill:#FFFFFF;}
</style>
<g>
	<path class="st0" d="M256,349.9c-18.6,0-36.5-5.4-52-15.7l-12.5-8.3l12.5-8.3c20.7-13.8,33-36.8,33-61.5c0-24.8-12.3-47.8-33-61.5
		l-12.5-8.3l12.5-8.3c15.4-10.3,33.4-15.7,52-15.7c51.8,0,93.9,42.1,93.9,93.9C349.9,307.8,307.8,349.9,256,349.9z M227.6,324.2
		c8.9,3.7,18.5,5.6,28.4,5.6c40.7,0,73.9-33.1,73.9-73.9c0-40.7-33.1-73.9-73.9-73.9c-9.8,0-19.4,1.9-28.4,5.6
		c18.6,17.6,29.4,42.1,29.4,68.2C257,282.1,246.3,306.6,227.6,324.2z"/>
</g>
</svg>
