<?xml version="1.0" encoding="utf-8"?>
<!-- Generator: Adobe Illustrator 19.2.0, SVG Export Plug-In . SVG Version: 6.00 Build 0)  -->
<svg version="1.1" id="icon" xmlns="http://www.w3.org/2000/svg" xmlns:xlink="http://www.w3.org/1999/xlink" x="0px" y="0px"
	 viewBox="0 0 512 512" style="enable-background:new 0 0 512 512;" xml:space="preserve">
<style type="text/css">
	.st0{fill:#FFFFFF;}
</style>
<g>
	<path class="st0" d="M432.8,206.7c-14.2-27.7-42.8-45.4-74.1-45.4c-8.4,0-16.7,1.3-24.7,3.7c-26-29.1-62.7-45.7-102-45.7
		c-31.1,0-61.5,10.7-85.6,30.1c-21.6,17.4-37.5,41.1-45.4,67.4c-48.3,0.2-87.6,39.5-87.6,87.8c0,48.4,39.4,87.8,87.8,87.8h301.8
		c52.6,0,95.3-42.8,95.3-95.3C498.5,256,471.7,219.4,432.8,206.7z"/>
	<polygon class="st0" points="124.6,415.9 113.6,422.2 113.6,409.5 101.6,409.5 101.6,422.2 90.6,415.9 84.6,426.3 95.6,432.6 
		84.6,439 90.6,449.4 101.6,443 101.6,455.7 113.6,455.7 113.6,443 124.6,449.4 130.6,439 119.6,432.6 130.6,426.3 	"/>
	<polygon class="st0" points="223.6,415.9 212.5,422.2 212.5,409.5 200.5,409.5 200.5,422.2 189.5,415.9 183.5,426.3 194.5,432.6 
		183.5,439 189.5,449.4 200.5,443 200.5,455.7 212.5,455.7 212.5,443 223.6,449.4 229.6,439 218.5,432.6 229.6,426.3 	"/>
	<polygon class="st0" points="273,454.9 262,461.2 262,448.5 250,448.5 250,461.2 239,454.9 233,465.3 244,471.6 233,478 239,488.4 
		250,482 250,494.7 262,494.7 262,482 273,488.4 279,478 268,471.6 279,465.3 	"/>
	<polygon class="st0" points="174.1,454.9 163.1,461.2 163.1,448.5 151.1,448.5 151.1,461.2 140.1,454.9 134.1,465.3 145.1,471.6 
		134.1,478 140.1,488.4 151.1,482 151.1,494.7 163.1,494.7 163.1,482 174.1,488.4 180.1,478 169.1,471.6 180.1,465.3 	"/>
</g>
</svg>
