<?xml version="1.0" encoding="utf-8"?>
<!-- Generator: Adobe Illustrator 19.2.0, SVG Export Plug-In . SVG Version: 6.00 Build 0)  -->
<svg version="1.1" id="icon" xmlns="http://www.w3.org/2000/svg" xmlns:xlink="http://www.w3.org/1999/xlink" x="0px" y="0px"
	 viewBox="0 0 512 512" style="enable-background:new 0 0 512 512;" xml:space="preserve">
<style type="text/css">
	.st0{fill:#F8A724;}
	.st1{fill:#FFFFFF;}
</style>
<g>
	<path class="st0" d="M367,262.4c-18.6,0-36.5-5.4-52-15.7l-12.5-8.3L315,230c20.7-13.8,33-36.8,33-61.5c0-24.8-12.3-47.8-33-61.5
		l-12.5-8.3l12.5-8.3c15.4-10.3,33.4-15.7,52-15.7c51.8,0,93.9,42.1,93.9,93.9C460.8,220.2,418.7,262.4,367,262.4z"/>
	<path class="st1" d="M201.2,430.3H57.7c-25.9,0-47-21.1-47-47c0-24.6,19-44.8,43-46.8c4.3-12.1,12-22.9,22.1-31.1
		c12.4-10,28-15.5,44-15.5c19.1,0,37,7.6,50.2,21.1c3.3-0.8,6.6-1.1,10-1.1c16.2,0,31,8.7,38.9,22.5c19.5,7.3,32.8,26.2,32.8,47.4
		C251.7,407.6,229.1,430.3,201.2,430.3z"/>
</g>
</svg>
