<?xml version="1.0" encoding="utf-8"?>
<!-- Generator: Adobe Illustrator 19.2.0, SVG Export Plug-In . SVG Version: 6.00 Build 0)  -->
<svg version="1.1" id="icon" xmlns="http://www.w3.org/2000/svg" xmlns:xlink="http://www.w3.org/1999/xlink" x="0px" y="0px"
	 viewBox="0 0 512 512" style="enable-background:new 0 0 512 512;" xml:space="preserve">
<style type="text/css">
	.st0{fill:#FFFFFF;}
</style>
<g>
	<path class="st0" d="M351.9,261c4.2-5.9,6.7-13,6.7-20.7c0-19.7-16-35.7-35.7-35.7c-9.8,0-18.8,4-25.2,10.5l14.3,14.3
		c2.8-2.8,6.7-4.6,11-4.6c8.6,0,15.5,7,15.5,15.5c0,8.6-7,15.5-15.5,15.5H137.1V276h185.8v0c0,0,0,0,0,0h8.4v0
		c13,0,23.5,10.5,23.5,23.5c0,13-10.5,23.5-23.5,23.5c-6.5,0-12.4-2.6-16.6-6.9l-14.3,14.3c7.9,7.9,18.8,12.8,30.9,12.8
		c24.1,0,43.7-19.6,43.7-43.7C374.9,282.9,365.6,268.4,351.9,261z"/>
	<path class="st0" d="M272.3,204.5c0-19.7-16-35.7-35.7-35.7c-9.8,0-18.8,4-25.2,10.5l14.3,14.3c2.8-2.8,6.7-4.6,11-4.6
		c8.6,0,15.5,7,15.5,15.5c0,8.6-7,15.5-15.5,15.5h-99.5v20.2h99.5C256.3,240.3,272.3,224.2,272.3,204.5z"/>
	<path class="st0" d="M236.6,291.7h-99.5v20.2h99.5c8.6,0,15.5,7,15.5,15.5c0,8.6-7,15.5-15.5,15.5c-4.3,0-8.2-1.7-11-4.6
		l-14.3,14.3c6.5,6.5,15.4,10.5,25.2,10.5c19.7,0,35.7-16,35.7-35.7C272.3,307.7,256.3,291.7,236.6,291.7z"/>
</g>
</svg>
