<?xml version="1.0" encoding="utf-8"?>
<!-- Generator: Adobe Illustrator 19.2.0, SVG Export Plug-In . SVG Version: 6.00 Build 0)  -->
<svg version="1.1" id="icon" xmlns="http://www.w3.org/2000/svg" xmlns:xlink="http://www.w3.org/1999/xlink" x="0px" y="0px"
	 viewBox="0 0 512 512" style="enable-background:new 0 0 512 512;" xml:space="preserve">
<style type="text/css">
	.st0{fill:#FFFFFF;}
	.st1{fill:#3A7BA5;}
	.st2{fill:#F8A724;}
</style>
<g>
	<path class="st0" d="M403.2,392.6H101.3c-48.4,0-87.8-39.4-87.8-87.8c0-48.3,39.3-87.7,87.6-87.8c7.9-26.4,23.8-50.1,45.4-67.4
		c24.1-19.4,54.5-30.1,85.6-30.1c39.2,0,76,16.6,102,45.7c8-2.5,16.2-3.7,24.7-3.7c31.4,0,60,17.7,74.1,45.4
		c38.9,12.7,65.7,49.3,65.7,90.6C498.5,349.9,455.7,392.6,403.2,392.6z M101.3,236.9c-37.4,0-67.8,30.4-67.8,67.8
		s30.4,67.8,67.8,67.8h301.8c41.5,0,75.3-33.8,75.3-75.3c0-33.9-22.8-63.8-55.5-72.7l-4.6-1.3l-1.9-4.3
		c-10.1-22.9-32.9-37.7-57.9-37.7c-8.3,0-16.4,1.6-24,4.7l-6.9,2.8l-4.7-5.8c-22.3-27.8-55.5-43.7-91-43.7
		c-54.6,0-101.3,37.1-113.6,90.2l-2,8.5l-8.7-0.8C105.5,237,103.4,236.9,101.3,236.9z"/>
	<g>
		<polygon class="st1" points="130.6,426.3 124.6,415.9 113.6,422.2 113.6,409.5 101.6,409.5 101.6,422.2 90.6,415.9 84.6,426.3 
			95.6,432.6 84.6,439 90.6,449.4 101.6,443 101.6,455.7 113.6,455.7 113.6,443 124.6,449.4 130.6,439 119.6,432.6 		"/>
		<polygon class="st1" points="229.6,426.3 223.6,415.9 212.5,422.2 212.5,409.5 200.5,409.5 200.5,422.2 189.5,415.9 183.5,426.3 
			194.5,432.6 183.5,439 189.5,449.4 200.5,443 200.5,455.7 212.5,455.7 212.5,443 223.6,449.4 229.6,439 218.5,432.6 		"/>
		<polygon class="st1" points="328.5,426.3 322.5,415.9 311.5,422.2 311.5,409.5 299.5,409.5 299.5,422.2 288.4,415.9 282.4,426.3 
			293.5,432.6 282.4,439 288.4,449.4 299.5,443 299.5,455.7 311.5,455.7 311.5,443 322.5,449.4 328.5,439 317.5,432.6 		"/>
		<polygon class="st1" points="427.4,426.3 421.4,415.9 410.4,422.2 410.4,409.5 398.4,409.5 398.4,422.2 387.4,415.9 381.4,426.3 
			392.4,432.6 381.4,439 387.4,449.4 398.4,443 398.4,455.7 410.4,455.7 410.4,443 421.4,449.4 427.4,439 416.4,432.6 		"/>
		<polygon class="st1" points="377.9,465.3 371.9,454.9 360.9,461.2 360.9,448.5 348.9,448.5 348.9,461.2 337.9,454.9 331.9,465.3 
			342.9,471.6 331.9,478 337.9,488.4 348.9,482 348.9,494.7 360.9,494.7 360.9,482 371.9,488.4 377.9,478 366.9,471.6 		"/>
		<polygon class="st1" points="279,465.3 273,454.9 262,461.2 262,448.5 250,448.5 250,461.2 239,454.9 233,465.3 244,471.6 
			233,478 239,488.4 250,482 250,494.7 262,494.7 262,482 273,488.4 279,478 268,471.6 		"/>
		<polygon class="st1" points="180.1,465.3 174.1,454.9 163.1,461.2 163.1,448.5 151.1,448.5 151.1,461.2 140.1,454.9 134.1,465.3 
			145.1,471.6 134.1,478 140.1,488.4 151.1,482 151.1,494.7 163.1,494.7 163.1,482 174.1,488.4 180.1,478 169.1,471.6 		"/>
	</g>
	<g>
		<path class="st2" d="M314.3,123.9c28.6,0,53.5,16.4,65.7,40.3c9.2,2.4,17.8,6.4,25.5,11.7c-9.9-41.2-47.1-71.9-91.3-71.9
			c-20.7,0-39.9,6.7-55.4,18.1c9,1.8,17.7,4.4,26.1,8C293.9,126,303.8,123.9,314.3,123.9z"/>
		<path class="st2" d="M234.5,106.3l-54.2-54.2l-14.1,14.1l53.7,53.7c0.4,0,0.7-0.1,1.1-0.1L234.5,106.3z"/>
		
			<rect x="387.4" y="73.8" transform="matrix(0.7071 -0.7071 0.7071 0.7071 65.4732 325.585)" class="st2" width="76.6" height="20"/>
		<rect x="302.5" y="0" class="st2" width="20" height="76.6"/>
		<rect x="435.4" y="186" class="st2" width="76.6" height="20"/>
	</g>
</g>
</svg>
