<?xml version="1.0" encoding="utf-8"?>
<!-- Generator: Adobe Illustrator 19.2.0, SVG Export Plug-In . SVG Version: 6.00 Build 0)  -->
<svg version="1.1" id="icon" xmlns="http://www.w3.org/2000/svg" xmlns:xlink="http://www.w3.org/1999/xlink" x="0px" y="0px"
	 viewBox="0 0 512 512" style="enable-background:new 0 0 512 512;" xml:space="preserve">
<style type="text/css">
	.st0{fill:#F8A724;}
</style>
<g>
	<path class="st0" d="M256,349.9c-51.8,0-93.9-42.1-93.9-93.9c0-51.8,42.1-93.9,93.9-93.9c51.8,0,93.9,42.1,93.9,93.9
		C349.9,307.8,307.8,349.9,256,349.9z M256,182.1c-40.7,0-73.9,33.1-73.9,73.9c0,40.7,33.1,73.9,73.9,73.9s73.9-33.1,73.9-73.9
		C329.9,215.3,296.7,182.1,256,182.1z"/>
	
		<rect x="360" y="329.2" transform="matrix(0.7071 -0.7071 0.7071 0.7071 -151.4883 369.2419)" class="st0" width="20" height="76.6"/>
	
		<rect x="132" y="106.2" transform="matrix(0.7071 -0.7071 0.7071 0.7071 -60.5896 142.758)" class="st0" width="20" height="76.6"/>
	
		<rect x="106.2" y="360" transform="matrix(0.7071 -0.7071 0.7071 0.7071 -219.2807 210.5509)" class="st0" width="76.6" height="20"/>
	<rect x="329.2" y="132" transform="matrix(0.7071 -0.7071 0.7071 0.7071 7.2034 301.4491)" class="st0" width="76.6" height="20"/>
	<rect x="247.8" y="377.1" class="st0" width="20" height="76.6"/>
	<rect x="244.2" y="58.3" class="st0" width="20" height="76.6"/>
	<rect x="58.3" y="247.8" class="st0" width="76.6" height="20"/>
	<rect x="377.1" y="244.2" class="st0" width="76.6" height="20"/>
</g>
</svg>
